<?xml version="1.0" encoding="UTF-8"?>
<svg width="14px" height="16px" viewBox="0 0 14 16" version="1.1" xmlns="http://www.w3.org/2000/svg" xmlns:xlink="http://www.w3.org/1999/xlink">
    <!-- Generator: Sketch 59 (86127) - https://sketch.com -->
    <title>Shape</title>
    <desc>Created with Sketch.</desc>
    <g id="Page-1" stroke="none" stroke-width="1" fill="none" fill-rule="evenodd" opacity="0.5">
        <g id="Modal-popup" transform="translate(-219.000000, -237.000000)" fill="#000000" fill-rule="nonzero">
            <g id="Date" transform="translate(109.000000, 225.000000)">
                <path d="M123.680413,14.473653 C123.467502,14.2605066 123.214898,14.1539187 122.923247,14.1539187 L121.846435,14.1539187 L121.846435,13.3461844 C121.846435,12.9760589 121.714504,12.6591241 121.450907,12.395498 C121.187163,12.131872 120.870406,12 120.500103,12 L119.961771,12 C119.591498,12 119.274622,12.131872 119.010996,12.3955275 C118.747282,12.6591241 118.615468,12.9760883 118.615468,13.3462139 L118.615468,14.1539482 L115.384826,14.1539482 L115.384826,13.3462139 C115.384826,12.9760883 115.252954,12.6591536 114.989299,12.3955275 C114.725702,12.131872 114.408797,12 114.038524,12 L113.500103,12 C113.129919,12 112.812984,12.131872 112.549328,12.3955275 C112.285732,12.6591241 112.15383,12.9760883 112.15383,13.3462139 L112.15383,14.1539482 L111.076989,14.1539482 C110.78525,14.1539482 110.532881,14.2605361 110.319734,14.4736824 C110.106588,14.6867993 110,14.9392863 110,15.230937 L110,26.0003242 C110,26.2917686 110.106588,26.5441966 110.319734,26.7574608 C110.532851,26.9705482 110.78522,27.0771656 111.076989,27.0771656 L122.923041,27.0771656 C123.214691,27.0771656 123.467326,26.9705777 123.680207,26.7574608 C123.893383,26.544285 124,26.2917391 124,26.0003242 L124,15.2309075 C124,14.9391684 123.893471,14.6867993 123.680413,14.473653 Z M119.692546,13.3463023 C119.692546,13.2677096 119.717565,13.2031439 119.767985,13.152782 C119.818406,13.1023613 119.882942,13.0771067 119.961594,13.0771067 L120.499926,13.0771067 C120.578607,13.0771067 120.642937,13.1022729 120.693535,13.152782 C120.743985,13.2032323 120.769181,13.267798 120.769181,13.3463023 L120.769181,15.7693282 C120.769181,15.8478915 120.743985,15.9123393 120.693535,15.9628485 C120.642908,16.0132104 120.578607,16.0385239 120.499926,16.0385239 L119.961594,16.0385239 C119.882942,16.0385239 119.818406,16.0133282 119.767985,15.9628485 C119.717565,15.9123099 119.692546,15.8478915 119.692546,15.7693282 L119.692546,13.3463023 Z M113.230908,13.3463023 C113.230908,13.2677096 113.256103,13.2031439 113.306583,13.152782 C113.357092,13.1023613 113.42154,13.0771067 113.500103,13.0771067 L114.038524,13.0771067 C114.117117,13.0771067 114.181682,13.1022729 114.232044,13.152782 C114.282465,13.2032323 114.307778,13.267798 114.307778,13.3463023 L114.307778,15.7693282 C114.307778,15.8478915 114.282583,15.9124277 114.232044,15.9628485 C114.181564,16.0132104 114.117117,16.0385239 114.038524,16.0385239 L113.500103,16.0385239 C113.42154,16.0385239 113.357004,16.0133282 113.306583,15.9628485 C113.256221,15.9123099 113.230908,15.8478915 113.230908,15.7693282 L113.230908,13.3463023 Z M122.923041,26.0001768 L111.076989,26.0001768 L111.076989,17.3847378 L122.923041,17.3847378 L122.923041,26.0001768 L122.923041,26.0001768 Z" id="Shape"></path>
            </g>
        </g>
    </g>
</svg>