<?xml version="1.0" encoding="utf-8"?>
<svg width="14px" height="14px" viewBox="0 0 14 14" version="1.1" xmlns:xlink="http://www.w3.org/1999/xlink" xmlns="http://www.w3.org/2000/svg">
  <desc>Created with Lunacy</desc>
  <path d="M11.5167 10.5262L9.28198 9.96741L9.15306 9.45116C10.6948 9.19158 11.4881 8.72958 11.5231 8.70916C11.6059 8.66073 11.6573 8.57266 11.6643 8.47698C11.6707 8.38131 11.6281 8.28741 11.5529 8.22731C11.5424 8.21916 10.5 7.35816 10.5 4.37499C10.5 1.85907 9.91141 0.583323 8.74998 0.583323L8.57791 0.583323C8.15906 0.1785 7.84466 0 6.99999 0C5.90391 0 3.49999 1.10192 3.49999 4.37499C3.49999 7.35816 2.45757 8.21916 2.45 8.22498C2.37242 8.28331 2.32867 8.37606 2.33332 8.47291C2.33857 8.57033 2.39107 8.65784 2.4745 8.70798C2.5095 8.72898 3.29524 9.19331 4.84631 9.45231L4.71739 9.96738L2.48267 10.5262C1.02082 10.892 0 12.1998 0 13.7083C0 13.8693 0.130676 14 0.291675 14L13.7083 14C13.8693 14 14 13.8681 14 13.7071C14 12.1998 12.9792 10.892 11.5167 10.5262Z" id="Path" fill="#FFFFFF" stroke="none" />
</svg>