<?xml version="1.0" encoding="utf-8"?>
<svg width="14px" height="19px" viewBox="0 0 14 19" version="1.1" xmlns:xlink="http://www.w3.org/1999/xlink" xmlns="http://www.w3.org/2000/svg">
  <desc>Created with Lunacy</desc>
  <g id="padlock-3" opacity="0.4">
    <path d="M12.7656 7.01129L12.0882 7.01129L12.0882 5.10699C12.0882 2.29194 9.8 0 6.98495 0C4.16989 0 1.88172 2.29194 1.88172 5.10323L1.88172 7.00753L1.20806 7.00753C0.541936 7.00753 0 7.54946 0 8.21559L0 17.2328C0 17.8989 0.541936 18.4409 1.20806 18.4409L12.7694 18.4409C13.4355 18.4409 13.9774 17.8989 13.9774 17.2328L13.9774 8.21559C13.9737 7.55323 13.4317 7.01129 12.7656 7.01129ZM3.41721 5.1032C3.41721 3.13492 5.01667 1.53546 6.98495 1.53546C8.95323 1.53546 10.5527 3.13492 10.5527 5.1032L10.5527 7.00374L3.41721 7.00374L3.41721 5.1032ZM1.53549 16.9054L12.4382 16.9054L12.4382 8.54675L1.53549 8.54675L1.53549 16.9054Z" id="Shape" fill="#000000" fill-rule="evenodd" stroke="none" />
    <path d="M0.767742 3.51505C1.19301 3.51505 1.53548 3.17258 1.53548 2.74731L1.53548 0.767742C1.53548 0.342473 1.19301 0 0.767742 0C0.342473 0 0 0.342473 0 0.767742L0 2.74731C1.06963e-15 3.16882 0.342473 3.51505 0.767742 3.51505L0.767742 3.51505Z" transform="translate(6.217224 12.24249)" id="Path" fill="#000000" stroke="none" />
  </g>
</svg>