<?xml version="1.0" encoding="utf-8"?>
<svg width="16px" height="16px" viewBox="0 0 16 16" version="1.1" xmlns:xlink="http://www.w3.org/1999/xlink" xmlns="http://www.w3.org/2000/svg">
  <desc>Created with Lunacy</desc>
  <g id="login">
    <path d="M6.50867 8.21463L13.0832 4.41846C13.1863 4.35913 13.2498 4.24879 13.2498 4.12996C13.2498 4.01113 13.1863 3.90079 13.0832 3.84129L6.50867 0.044625C6.4055 -0.014875 6.2785 -0.014875 6.17533 0.044625C6.07217 0.104125 6.00867 0.214292 6.00867 0.333292L6.00867 2.10079L0.333333 2.10079C0.149333 2.10079 0 2.25013 0 2.43413L0 5.82479C0 6.00879 0.149333 6.15813 0.333333 6.15813L6.00883 6.15813L6.00883 7.92546C6.00883 8.04479 6.07233 8.15462 6.1755 8.21412C6.22717 8.24413 6.28467 8.25879 6.34217 8.25879C6.39967 8.25879 6.45717 8.24413 6.50867 8.21463Z" transform="translate(0 3.842712)" id="Path" fill="#FFFFFF" stroke="none" />
    <path d="M7.12483 0L0.333333 0C0.149333 0 0 0.149333 0 0.333333L0 1.33333C0 1.51733 0.149333 1.66667 0.333333 1.66667L7.12483 1.66667C7.5635 1.66667 7.92 2.0235 7.92 2.46183L7.92 13.4827C7.92 13.9212 7.56317 14.2778 7.12483 14.2778L0.333333 14.2778C0.149333 14.2778 0 14.4272 0 14.6112L0 15.6112C0 15.7952 0.149333 15.9445 0.333333 15.9445L7.12483 15.9445C8.4825 15.9445 9.58667 14.84 9.58667 13.4827L9.58667 2.462C9.58667 1.1045 8.48233 0 7.12483 0Z" transform="translate(6.317505 0)" id="Path" fill="#FFFFFF" stroke="none" />
  </g>
</svg>