
<svg width="16px" height="12px" viewBox="0 0 16 12" version="1.1" xmlns="http://www.w3.org/2000/svg" xmlns:xlink="http://www.w3.org/1999/xlink">
    <g id="Page-1" stroke="none" stroke-width="1" fill="none" fill-rule="evenodd" opacity="0.5">
        <g id="sign-in" transform="translate(-435.000000, -301.000000)" fill="#000000" fill-rule="nonzero">
            <g id="Left" transform="translate(415.000000, 194.000000)">
                <g id="Type-card-Copy-4" transform="translate(0.000000, 86.000000)">
                    <g id="letter" transform="translate(20.000000, 21.000000)">
                        <path d="M14.4196485,11.4977406 L1.61014226,11.4977406 C0.715615063,11.4977406 0,10.7821255 0,9.88759833 L0,1.62225941 C0,0.727732218 0.715615063,0.0121171548 1.61014226,0.0121171548 L14.3838661,0.0121171548 C15.2783933,0.0121171548 15.9940084,0.727732218 15.9940084,1.62225941 L15.9940084,9.88759833 C16.0297573,10.7821255 15.2783933,11.4977406 14.4196485,11.4977406 Z M1.61014226,1.08555649 C1.32388285,1.08555649 1.07343933,1.33603347 1.07343933,1.62225941 L1.07343933,9.88759833 C1.07343933,10.1738577 1.32391632,10.4243013 1.61014226,10.4243013 L14.3838661,10.4243013 C14.6701255,10.4243013 14.920569,10.1738243 14.920569,9.88759833 L14.920569,1.62225941 C14.920569,1.336 14.6700921,1.08555649 14.3838661,1.08555649 L1.61014226,1.08555649 Z" id="Shape" opacity="0.8"></path>
                        <path d="M8.0148954,7.74075314 C7.87176569,7.74075314 7.76441841,7.70497071 7.6571046,7.59762343 L0.500920502,1.26443515 C0.286225941,1.08552301 0.250443515,0.727732218 0.465138075,0.513037657 C0.644050209,0.298343096 1.001841,0.262560669 1.21653556,0.47725523 L8.01486192,6.48843515 L14.8131883,0.47725523 C15.0278828,0.298343096 15.3856736,0.298343096 15.5645858,0.513037657 C15.7434979,0.727732218 15.7434979,1.08552301 15.5288033,1.26443515 L8.37265272,7.59762343 C8.26533891,7.66918828 8.12224268,7.74075314 8.0148954,7.74075314 Z" id="Path" opacity="0.8"></path>
                        <g id="Group" transform="translate(0.100418, 5.121339)" opacity="0.8">
                            <path d="M0.543631799,5.87548117 C0.400502092,5.87548117 0.257372385,5.80391632 0.150058577,5.69656904 C-0.0646359833,5.48187448 -0.0288535565,5.12408368 0.185841004,4.94517155 L5.2667113,0.150560669 C5.48140586,-0.0641338912 5.83919665,-0.0283514644 6.01810879,0.186343096 C6.23280335,0.401037657 6.19702092,0.758828452 5.98232636,0.937740586 L0.937205021,5.73235146 C0.829891213,5.80391632 0.686761506,5.87548117 0.543631799,5.87548117 Z" id="Path"></path>
                            <path d="M15.2495063,5.87548117 C15.1063766,5.87548117 14.9990293,5.83969874 14.891682,5.73235146 L9.81084519,0.937740586 C9.59615063,0.723046025 9.59615063,0.401037657 9.77506276,0.186343096 C9.98975732,-0.0283514644 10.3117657,-0.0283514644 10.5264603,0.150560669 L15.6073305,4.94517155 C15.8220251,5.15986611 15.8220251,5.48187448 15.643113,5.69656904 C15.5357657,5.80391632 15.392636,5.87548117 15.2495063,5.87548117 Z" id="Path"></path>
                        </g>
                    </g>
                </g>
            </g>
        </g>
    </g>
</svg>