<?xml version="1.0" encoding="utf-8"?>
<!-- Generator: Adobe Illustrator 17.0.0, SVG Export Plug-In . SVG Version: 6.00 Build 0)  -->
<!DOCTYPE svg PUBLIC "-//W3C//DTD SVG 1.1//EN" "http://www.w3.org/Graphics/SVG/1.1/DTD/svg11.dtd">
<svg version="1.1" id="Layer_1" xmlns="http://www.w3.org/2000/svg" xmlns:xlink="http://www.w3.org/1999/xlink" x="0px" y="0px"
	 width="215px" height="215px" viewBox="0 0 215 215" enable-background="new 0 0 215 215" xml:space="preserve">
<g>
	<linearGradient id="SVGID_1_" gradientUnits="userSpaceOnUse" x1="-7.051494e-008" y1="107.5" x2="215" y2="107.5">
		<stop  offset="0" style="stop-color:#39C5F9"/>
		<stop  offset="1" style="stop-color:#D73B99"/>
	</linearGradient>
	<path fill="url(#SVGID_1_)" d="M143.936,215h-1.201c-9.009,0-18.4-1.558-27.916-4.631c-5.521-1.662-13.051-4.63-22.38-8.821
		c-10.608-4.766-15.954-5.767-18.571-5.767c-2.667,0-5.066-0.991-6.94-2.868c-1.875-1.878-2.864-4.276-2.864-6.937v-85.684
		c0-2.737,1.137-5.168,3.213-6.896c5.103-5.403,11.457-13.601,18.893-24.372c6.634-9.675,12.083-16.473,16.647-20.767
		c2.101-2.118,3.841-5.108,5.175-8.887c0.023-0.065,0.048-0.131,0.073-0.195c0.936-2.335,2.028-6.213,3.248-11.53
		c0.013-0.366,0.066-0.73,0.159-1.085c1.673-6.413,3.186-11.212,4.626-14.673c0.021-0.05,0.042-0.1,0.064-0.149
		C119.704,3.949,124.334,0,129.922,0c8.246,0,15.293,2.069,20.945,6.151c8.564,6.345,12.883,16.856,12.883,31.28
		c0,5.32-0.895,10.702-2.659,15.995c-0.031,0.094-0.064,0.186-0.102,0.277c-1.159,2.896-3.071,6.732-5.846,11.726
		c-1.033,1.976-1.849,3.64-2.49,5.039h33.323c8.015,0,14.93,2.85,20.552,8.471C212.149,84.559,215,91.204,215,98.691
		c0,4.397-0.874,8.69-2.599,12.761c-1.288,3.045-2.836,5.775-4.614,8.147c1.549,4.9,2.082,10.126,1.587,15.579
		c-0.537,5.926-2.398,11.338-5.541,16.126c1.207,5.188,1.148,10.629-0.18,16.21c-1.292,5.434-3.415,10.183-6.323,14.153
		c1.183,7.345-0.167,13.91-4.024,19.545c-4.248,6.207-11.817,10.282-22.5,12.113C164.925,214.447,156.105,215,143.936,215z
		 M74.063,185.781c5.324,0.064,12.668,2.239,22.474,6.646c8.963,4.026,16.099,6.847,21.21,8.38c0.033,0.01,0.067,0.021,0.102,0.032
		c8.536,2.761,16.909,4.161,24.887,4.161h1.201c11.375,0,19.816-0.509,25.09-1.514c8.004-1.373,13.366-4.032,16.028-7.922
		c2.669-3.898,3.342-8.501,2.057-14.069c-0.357-1.547,0.042-3.172,1.075-4.378c2.668-3.112,4.599-7.122,5.739-11.917
		c1.132-4.755,1.032-9.122-0.304-13.353c-0.491-1.554-0.193-3.25,0.796-4.544c2.914-3.809,4.549-8.07,4.998-13.028
		c0.456-5.021-0.228-9.74-2.031-14.025c-0.649-1.543-0.483-3.31,0.443-4.705c0.435-0.655,1.011-1.188,1.673-1.568
		c1.408-1.8,2.648-3.954,3.693-6.424c1.199-2.83,1.807-5.812,1.807-8.861c0-4.805-1.813-8.952-5.542-12.68
		c-3.73-3.729-8.141-5.543-13.481-5.543h-40.439c-1.498,0-2.917-0.672-3.866-1.83c-0.95-1.158-1.33-2.681-1.037-4.149
		c0.632-3.161,2.489-7.659,5.679-13.752c0.02-0.037,0.039-0.073,0.06-0.11c2.502-4.5,4.277-8.032,5.279-10.504
		c1.393-4.225,2.099-8.494,2.099-12.691c0-11.237-2.874-18.829-8.787-23.209c-3.919-2.83-8.854-4.223-15.041-4.223
		c-0.732,0-2.527,1.226-4.624,5.806c-1.193,2.884-2.537,7.15-3.997,12.689c-0.015,0.281-0.054,0.56-0.116,0.834
		c-1.389,6.119-2.632,10.526-3.799,13.466c-1.843,5.187-4.384,9.421-7.553,12.588c-0.037,0.037-0.076,0.074-0.114,0.111
		c-3.987,3.736-9.139,10.196-15.312,19.198c-7.854,11.378-14.621,20.069-20.122,25.846c-0.072,0.075-0.146,0.148-0.223,0.22V185.781
		z M46.641,197.587H14.609c-3.97,0-7.545-1.475-10.34-4.265C1.476,190.53,0,186.953,0,182.978V107.3
		c0-3.978,1.477-7.554,4.269-10.344c2.794-2.791,6.369-4.266,10.341-4.266h32.031c3.973,0,7.549,1.476,10.341,4.267
		c2.792,2.787,4.269,6.364,4.269,10.343v75.678c0,3.978-1.477,7.554-4.269,10.344C54.188,196.112,50.612,197.587,46.641,197.587z
		 M14.609,102.69c-1.336,0-2.345,0.413-3.273,1.34C10.412,104.954,10,105.962,10,107.3v75.678c0,1.337,0.412,2.346,1.337,3.271
		c0.928,0.926,1.938,1.339,3.272,1.339h32.031c1.336,0,2.345-0.413,3.273-1.34c0.924-0.924,1.336-1.932,1.336-3.27V107.3
		c0-1.338-0.412-2.346-1.336-3.269c-0.928-0.928-1.938-1.341-3.273-1.341H14.609z M30.625,181.571c-3.97,0-7.545-1.475-10.34-4.265
		c-2.794-2.792-4.27-6.369-4.27-10.345c0-3.978,1.477-7.554,4.269-10.344c2.794-2.791,6.369-4.266,10.341-4.266
		c3.973,0,7.549,1.476,10.341,4.267c2.792,2.787,4.269,6.364,4.269,10.343c0,3.978-1.477,7.554-4.269,10.344
		C38.172,180.097,34.597,181.571,30.625,181.571z M30.625,162.353c-1.336,0-2.345,0.413-3.273,1.34
		c-0.924,0.924-1.336,1.932-1.336,3.27c0,1.337,0.412,2.346,1.337,3.271c0.928,0.925,1.938,1.339,3.272,1.339
		c1.336,0,2.345-0.413,3.273-1.34c0.924-0.924,1.336-1.932,1.336-3.27s-0.412-2.346-1.336-3.269
		C32.971,162.766,31.961,162.353,30.625,162.353z"/>
</g>
</svg>
