<?xml version="1.0" encoding="utf-8"?>
<!-- Generator: Adobe Illustrator 17.0.0, SVG Export Plug-In . SVG Version: 6.00 Build 0)  -->
<!DOCTYPE svg PUBLIC "-//W3C//DTD SVG 1.1//EN" "http://www.w3.org/Graphics/SVG/1.1/DTD/svg11.dtd">
<svg version="1.1" id="Layer_1" xmlns="http://www.w3.org/2000/svg" xmlns:xlink="http://www.w3.org/1999/xlink" x="0px" y="0px"
	 width="148.674px" height="106.562px" viewBox="0 0 148.674 106.562" enable-background="new 0 0 148.674 106.562"
	 xml:space="preserve">
<g opacity="0.5">
	<defs>
		<path id="SVGID_5_" opacity="0.5" d="M1127.774-108.44v-786.074H-885.513v785.969
			c324.669-68.553,661.322-104.611,1006.397-104.611C466.133-213.156,802.952-177.061,1127.774-108.44z"/>
	</defs>
	<clipPath id="SVGID_1_">
		<use xlink:href="#SVGID_5_"  overflow="visible"/>
	</clipPath>
	<g clip-path="url(#SVGID_1_)">
	</g>
</g>
<path fill="#FFFFFF" d="M101.268,5.511h2.115v9.292c0.856-1.128,1.798-1.971,2.826-2.53c1.027-0.559,2.14-0.838,3.339-0.838
	c1.228,0,2.319,0.312,3.271,0.937s1.654,1.463,2.108,2.515c0.453,1.052,0.68,2.702,0.68,4.948v8.461h-2.116v-7.841
	c0-1.894-0.075-3.157-0.226-3.792c-0.262-1.088-0.738-1.906-1.427-2.455c-0.69-0.549-1.594-0.823-2.712-0.823
	c-1.28,0-2.425,0.423-3.438,1.269c-1.012,0.846-1.68,1.894-2.001,3.142c-0.202,0.806-0.303,2.297-0.303,4.472v6.028h-2.115V5.511z
	 M136.699,11.856v16.438h-2.085v-2.826c-0.886,1.078-1.881,1.889-2.984,2.433c-1.103,0.544-2.308,0.816-3.618,0.816
	c-2.326,0-4.312-0.844-5.961-2.531c-1.647-1.687-2.47-3.739-2.47-6.156c0-2.367,0.832-4.391,2.494-6.074
	c1.662-1.682,3.662-2.523,5.999-2.523c1.35,0,2.57,0.287,3.663,0.861c1.093,0.574,2.052,1.435,2.878,2.584v-3.022H136.699z
	 M128.247,13.473c-1.177,0-2.263,0.289-3.26,0.868c-0.995,0.578-1.787,1.391-2.376,2.437c-0.589,1.046-0.883,2.153-0.883,3.32
	c0,1.157,0.297,2.264,0.892,3.32c0.592,1.056,1.391,1.879,2.391,2.467c1.001,0.589,2.075,0.883,3.222,0.883
	c1.157,0,2.254-0.292,3.29-0.875s1.834-1.373,2.391-2.369c0.559-0.996,0.838-2.118,0.838-3.365c0-1.901-0.627-3.491-1.879-4.769
	C131.619,14.112,130.077,13.473,128.247,13.473z M143.075,5.753h2.115v6.104h3.354v1.828h-3.354v14.61h-2.115v-14.61h-2.886v-1.828
	h2.886V5.753z M96.566,5.511l-5.162,18.484L85.849,5.511h-1.998l-5.554,18.484L73.135,5.511h-2.605l6.413,22.173h2.932L84.85,11.19
	l4.976,16.493h2.932l6.413-22.173H96.566z M70.67,41.174h6.636v26.447H70.67v-2.796c-1.295,1.232-2.594,2.119-3.897,2.662
	c-1.303,0.543-2.716,0.815-4.237,0.815c-3.415,0-6.37-1.325-8.863-3.975c-2.492-2.65-3.739-5.943-3.739-9.882
	c0-4.083,1.206-7.429,3.618-10.039c2.412-2.609,5.341-3.913,8.789-3.913c1.586,0,3.074,0.299,4.467,0.899
	c1.392,0.599,2.678,1.498,3.861,2.698V41.174z M63.693,46.619c-2.051,0-3.755,0.725-5.112,2.175
	c-1.357,1.451-2.034,3.31-2.034,5.579c0,2.285,0.69,4.164,2.071,5.639c1.381,1.475,3.081,2.212,5.1,2.212
	c2.084,0,3.812-0.725,5.184-2.176c1.373-1.45,2.06-3.351,2.06-5.7c0-2.301-0.687-4.165-2.06-5.591
	C67.53,47.332,65.794,46.619,63.693,46.619z M81.533,32.035h6.635v35.586h-6.635V32.035z M106.495,40.494
	c2.496,0,4.841,0.623,7.037,1.871c2.196,1.248,3.909,2.941,5.142,5.08c1.231,2.14,1.847,4.448,1.847,6.928
	c0,2.495-0.619,4.829-1.86,7.001c-1.239,2.172-2.928,3.869-5.067,5.092c-2.139,1.224-4.497,1.836-7.074,1.836
	c-3.793,0-7.028-1.349-9.711-4.048c-2.683-2.698-4.023-5.975-4.023-9.832c0-4.133,1.516-7.575,4.545-10.33
	C99.989,41.693,103.042,40.494,106.495,40.494z M106.604,46.741c-2.062,0-3.779,0.716-5.15,2.151
	c-1.371,1.435-2.057,3.269-2.057,5.506c0,2.301,0.678,4.165,2.033,5.591c1.356,1.426,3.073,2.139,5.15,2.139
	c2.077,0,3.806-0.721,5.185-2.164c1.38-1.441,2.071-3.297,2.071-5.566c0-2.268-0.678-4.112-2.033-5.53
	C110.447,47.449,108.714,46.741,106.604,46.741z M125.217,41.174h6.638v2.71c1.505-1.268,2.867-2.151,4.089-2.646
	s2.472-0.744,3.751-0.744c2.621,0,4.845,0.915,6.675,2.746c1.538,1.555,2.305,3.857,2.305,6.903v17.478h-6.563V56.039
	c0-3.156-0.14-5.252-0.423-6.288c-0.283-1.036-0.777-1.825-1.481-2.368c-0.704-0.542-1.573-0.814-2.606-0.814
	c-1.342,0-2.494,0.45-3.457,1.348c-0.961,0.898-1.628,2.141-2,3.727c-0.193,0.826-0.29,2.615-0.29,5.366v10.61h-6.638V41.174z
	 M35.181,89.051c12.46,0,15.88-8.184,15.88-13.437c0-5.253-1.588-12.46-8.551-20.278S27.607,35.425,27.607,23.454
	S33.348,7.832,38.112,7.832s9.04,4.139,9.04,9.88s-3.054,10.582-3.054,10.582s2.81,3.741,11.849,3.741s11.81-6.016,11.81-11.391
	S61.811,0,33.837,0S0,16.247,0,25.653s7.085,20.217,21.377,29.653s16.949,13.956,16.949,17.132c0,1.099,0.641,9.07-8.062,9.07
	s-9.803-9.711-9.803-9.711C20.461,79.829,22.721,89.051,35.181,89.051z M34.101,92.35c-3.925,0-7.106,3.182-7.106,7.106
	c0,3.925,3.182,7.106,7.106,7.106s7.106-3.182,7.106-7.106C41.207,95.531,38.026,92.35,34.101,92.35z"/>
</svg>
