<svg width="10" height="18" viewBox="0 0 10 18" fill="#A8A5A5" xmlns="http://www.w3.org/2000/svg">
            <path d="M8.81433 0.753433L6.83553 0.75C4.61241 0.75 3.17574 2.34382 3.17574 4.81067V6.68291H1.18615C1.01422 6.68291 0.875 6.83363 0.875 7.01953V9.73219C0.875 9.9181 1.01438 10.0686 1.18615 10.0686H3.17574V16.9136C3.17574 17.0995 3.31496 17.25 3.48689 17.25H6.08274C6.25467 17.25 6.39389 17.0993 6.39389 16.9136V10.0686H8.72019C8.89211 10.0686 9.03134 9.9181 9.03134 9.73219L9.03229 7.01953C9.03229 6.93027 8.99943 6.84478 8.94117 6.78161C8.88291 6.71845 8.80353 6.68291 8.72098 6.68291H6.39389V5.09579C6.39389 4.33296 6.562 3.9457 7.481 3.9457L8.81401 3.94519C8.98577 3.94519 9.125 3.79447 9.125 3.60874V1.08988C9.125 0.904318 8.98593 0.753776 8.81433 0.753433Z"/>
          </svg>