<svg width="16" height="16" viewBox="0 0 16 16" fill="#A8A5A5" xmlns="http://www.w3.org/2000/svg">
              <path d="M11.0314 0.5H4.96858C2.5046 0.5 0.5 2.5046 0.5 4.96858V11.0314C0.5 13.4954 2.5046 15.5 4.96858 15.5H11.0314C13.4954 15.5 15.5 13.4954 15.5 11.0314V4.96858C15.5 2.5046 13.4954 0.5 11.0314 0.5ZM13.991 11.0314C13.991 12.6659 12.6659 13.991 11.0314 13.991H4.96858C3.33406 13.991 2.009 12.6659 2.009 11.0314V4.96858C2.009 3.33404 3.33406 2.009 4.96858 2.009H11.0314C12.6659 2.009 13.991 3.33404 13.991 4.96858V11.0314Z"/>
              <path d="M8 4.25C5.93225 4.25 4.25 5.93225 4.25 7.99999C4.25 10.0677 5.93225 11.75 8 11.75C10.0678 11.75 11.75 10.0677 11.75 7.99999C11.75 5.93223 10.0678 4.25 8 4.25ZM8 10.2914C6.73449 10.2914 5.70862 9.26552 5.70862 8.00001C5.70862 6.7345 6.73452 5.70862 8 5.70862C9.26551 5.70862 10.2914 6.7345 10.2914 8.00001C10.2914 9.2655 9.26548 10.2914 8 10.2914Z"/>
              <path d="M11.75 5C12.1642 5 12.5 4.66421 12.5 4.25C12.5 3.83579 12.1642 3.5 11.75 3.5C11.3358 3.5 11 3.83579 11 4.25C11 4.66421 11.3358 5 11.75 5Z"/>
            </svg>