<?xml version="1.0" standalone="no"?>
<!DOCTYPE svg PUBLIC "-//W3C//DTD SVG 1.1//EN" "http://www.w3.org/Graphics/SVG/1.1/DTD/svg11.dtd" >
<svg xmlns="http://www.w3.org/2000/svg">
<metadata>Generated by IcoMoon</metadata>
<defs>
<font id="icomoon" horiz-adv-x="1024">
<font-face units-per-em="1024" ascent="960" descent="-64" />
<missing-glyph horiz-adv-x="1024" />
<glyph unicode="&#x20;" horiz-adv-x="512" d="" />
<glyph unicode="&#xe900;" glyph-name="01" d="M17.067 337.636c0-67.129 9.102-194.56 95.573-254.862 64.853-44.373 166.116-38.684 225.28-38.684s160.427-5.689 225.28 38.684c46.649 31.858 95.573 102.4 95.573 254.862v228.693c0 129.707-45.511 195.698-83.058 228.693-63.716 55.751-151.324 59.164-237.796 59.164s-174.080-3.413-237.796-59.164c-37.547-32.996-83.058-98.987-83.058-228.693v-228.693zM167.253 559.502c0 37.547 3.413 103.538 51.2 142.222 30.72 25.031 84.196 32.996 119.467 32.996s88.747-7.964 119.467-32.996c47.787-38.684 51.2-104.676 51.2-142.222v-204.8c0-46.649-2.276-112.64-34.133-150.187-36.409-40.96-93.298-40.96-136.533-40.96-40.96 0-102.4 0-137.671 40.96-23.893 28.444-32.996 76.231-32.996 150.187v204.8zM851.689 49.778h150.187v696.32c0 23.893-2.276 55.751-29.582 78.507-17.067 13.653-42.098 21.618-73.956 21.618h-171.804v-119.467h87.609c11.378 0 21.618 0 29.582-12.516 6.827-10.24 7.964-28.444 7.964-42.098v-622.364z" />
<glyph unicode="&#xe901;" glyph-name="02" d="M12.288 368.538c0-48.333 6.554-140.083 68.813-183.501 46.694-31.949 119.603-27.853 162.202-27.853s115.507-4.096 162.202 27.853c33.587 22.938 68.813 73.728 68.813 183.501v164.659c0 93.389-32.768 140.902-59.802 164.659-45.875 40.141-108.954 42.598-171.213 42.598s-125.338-2.458-171.213-42.598c-27.034-23.757-59.802-71.27-59.802-164.659v-164.659zM120.422 528.282c0 27.034 2.458 74.547 36.864 102.4 22.118 18.022 60.621 23.757 86.016 23.757s63.898-5.734 86.016-23.757c34.406-27.853 36.864-75.366 36.864-102.4v-147.456c0-33.587-1.638-81.101-24.576-108.134-26.214-29.491-67.174-29.491-98.304-29.491-29.491 0-73.728 0-99.123 29.491-17.203 20.48-23.757 54.886-23.757 108.134v147.456zM979.399 161.28v86.016h-285.082c-5.734 0-6.554 3.277-6.554 4.915 0 4.096 6.554 8.192 9.011 9.83l231.014 160.563c17.203 12.288 35.226 24.576 49.971 45.875 25.395 36.864 26.214 82.739 26.214 113.869 0 42.598-3.277 87.654-34.406 118.784-29.491 30.31-70.451 33.587-96.666 33.587h-278.528v-86.016h228.557c27.853 0 48.333-7.373 58.163-19.661 9.011-11.469 11.469-30.31 11.469-58.982 0-32.768-2.458-59.802-36.045-82.739l-265.421-181.862c-17.203-11.469-35.226-30.31-35.226-75.366 0-67.174 49.971-68.813 60.621-68.813h362.906z" />
<glyph unicode="&#xe902;" glyph-name="03" d="M12.539 366.916c0-49.319 6.687-142.942 70.217-187.246 47.647-32.601 122.044-28.421 165.512-28.421s117.864-4.18 165.512 28.421c34.273 23.406 70.217 75.233 70.217 187.246v168.020c0 95.295-33.437 143.778-61.022 168.020-46.811 40.96-111.177 43.468-174.707 43.468s-127.896-2.508-174.707-43.468c-27.585-24.242-61.022-72.725-61.022-168.020v-168.020zM122.88 529.92c0 27.585 2.508 76.069 37.616 104.49 22.57 18.39 61.858 24.242 87.771 24.242s65.202-5.851 87.771-24.242c35.109-28.421 37.616-76.904 37.616-104.49v-150.465c0-34.273-1.672-82.756-25.078-110.341-26.749-30.093-68.545-30.093-100.31-30.093-30.093 0-75.233 0-101.146 30.093-17.554 20.898-24.242 56.007-24.242 110.341v150.465zM577.248 652.8h249.94c16.718 0 37.616-1.672 52.663-17.554 14.211-15.882 15.882-39.288 15.882-60.186 0-20.062-1.672-45.14-15.882-61.022-16.718-18.39-44.304-19.226-61.858-19.226h-235.729v-87.771h242.416c10.867 0 37.616-0.836 55.171-14.211 23.406-17.554 24.242-43.468 24.242-70.217 0-25.078-1.672-53.499-25.913-69.381-15.882-10.031-39.288-10.031-76.069-10.031h-234.893v-87.771h312.633c34.273 0 69.381 4.18 99.474 34.273 34.273 34.273 38.452 78.576 38.452 127.060 0 31.765-0.836 77.74-32.601 108.669-14.211 13.375-36.78 25.078-63.53 25.913v2.508c29.257 2.508 49.319 17.554 60.186 30.093 25.078 28.421 27.585 68.545 27.585 102.818 0 30.929-1.672 76.904-27.585 110.341-32.601 41.796-79.412 43.468-111.177 43.468h-293.407v-87.771z" />
<glyph unicode="&#xe903;" glyph-name="04" d="M11.592 373.035c0-45.597 6.183-132.154 64.918-173.114 44.051-30.14 112.833-26.276 153.020-26.276s108.969-3.864 153.020 26.276c31.686 21.639 64.918 69.555 64.918 173.114v155.339c0 88.103-30.913 132.927-56.417 155.339-43.278 37.869-102.786 40.187-161.522 40.187s-118.243-2.318-161.522-40.187c-25.503-22.412-56.417-67.236-56.417-155.339v-155.339zM113.606 523.737c0 25.503 2.318 70.328 34.777 96.604 20.866 17.002 57.189 22.412 81.147 22.412s60.281-5.41 81.147-22.412c32.459-26.276 34.777-71.1 34.777-96.604v-139.109c0-31.686-1.546-76.51-23.185-102.014-24.731-27.822-63.372-27.822-92.74-27.822-27.822 0-69.555 0-93.512 27.822-16.229 19.321-22.412 51.78-22.412 102.014v139.109zM835.086 177.509h102.014v91.194h68.782v81.147h-68.782v316.088c0 13.138 0.773 27.049-13.138 41.733s-33.232 17.002-48.688 17.002c-17.775 0-49.461-3.091-74.965-30.913l-261.217-279.765c-26.276-28.595-30.14-49.461-30.14-70.328 0-30.913 9.274-48.688 18.548-58.735 16.229-16.229 34.005-16.229 47.915-16.229h259.671v-91.194zM835.086 349.851h-214.847c-12.365 0-13.911 6.183-13.911 9.274 0 3.864 5.41 9.274 9.274 13.138l207.118 229.531c6.183 6.955 7.728 7.728 9.274 7.728s3.091-0.773 3.091-3.091v-256.58z" />
<glyph unicode="&#xe904;" glyph-name="05" d="M12.539 366.916c0-49.319 6.687-142.942 70.217-187.246 47.647-32.601 122.044-28.421 165.512-28.421s117.864-4.18 165.512 28.421c34.273 23.406 70.217 75.233 70.217 187.246v168.020c0 95.295-33.437 143.778-61.022 168.020-46.811 40.96-111.177 43.468-174.707 43.468s-127.896-2.508-174.707-43.468c-27.585-24.242-61.022-72.725-61.022-168.020v-168.020zM122.88 529.92c0 27.585 2.508 76.069 37.616 104.49 22.57 18.39 61.858 24.242 87.771 24.242s65.202-5.851 87.771-24.242c35.109-28.421 37.616-76.904 37.616-104.49v-150.465c0-34.273-1.672-82.756-25.078-110.341-26.749-30.093-68.545-30.093-100.31-30.093-30.093 0-75.233 0-101.146 30.093-17.554 20.898-24.242 56.007-24.242 110.341v150.465zM570.56 155.429h295.079c30.929 0 76.904 0 111.177 33.437 36.78 35.944 40.124 95.295 40.124 147.958 0 40.124-0.836 82.756-30.093 119.536s-64.366 44.304-99.474 44.304h-161.332c-11.703 0-30.093 1.672-39.288 10.867-9.195 10.031-9.195 26.749-9.195 38.452v72.725c0 6.687 0 16.718 5.016 22.57 4.18 5.851 14.211 7.523 22.57 7.523h292.571v87.771h-352.758c-11.703 0-40.124-0.836-59.35-20.898-8.359-9.195-18.39-25.913-18.39-54.335v-147.958c0-20.062 0.836-64.366 33.437-87.771 23.406-16.718 61.022-16.718 83.592-16.718h155.481c30.929 0 45.14-13.375 50.991-21.734 10.867-15.047 12.539-42.632 12.539-58.514 0-21.734-4.18-50.991-12.539-64.366-15.047-23.406-42.632-25.078-59.35-25.078h-260.807v-87.771z" />
<glyph unicode="&#xe905;" glyph-name="06" d="M12.288 368.538c0-48.333 6.554-140.083 68.813-183.501 46.694-31.949 119.603-27.853 162.202-27.853s115.507-4.096 162.202 27.853c33.587 22.938 68.813 73.728 68.813 183.501v164.659c0 93.389-32.768 140.902-59.802 164.659-45.875 40.141-108.954 42.598-171.213 42.598s-125.338-2.458-171.213-42.598c-27.034-23.757-59.802-71.27-59.802-164.659v-164.659zM120.422 528.282c0 27.034 2.458 74.547 36.864 102.4 22.118 18.022 60.621 23.757 86.016 23.757s63.898-5.734 86.016-23.757c34.406-27.853 36.864-75.366 36.864-102.4v-147.456c0-33.587-1.638-81.101-24.576-108.134-26.214-29.491-67.174-29.491-98.304-29.491-29.491 0-73.728 0-99.123 29.491-17.203 20.48-23.757 54.886-23.757 108.134v147.456zM680.391 512.717v61.44c0 10.65 0.819 37.683 18.842 55.706s45.875 18.842 61.44 18.842h224.461v86.016h-262.963c-26.214 0-67.994-3.277-99.942-28.672-20.48-16.384-49.971-52.429-49.971-120.422v-266.24c0-51.61 9.011-99.942 50.79-130.253 22.118-16.384 54.886-27.853 94.208-27.853h143.36c45.875 0 99.942 9.83 128.614 58.982 22.118 38.502 24.576 100.762 24.576 126.976 0 37.683-2.458 96.666-45.056 134.349-32.768 29.491-71.27 31.13-104.038 31.13h-184.32zM680.391 426.701h135.168c22.118 0 48.333-1.638 67.174-21.299 18.842-18.842 19.661-44.237 19.661-64.717 0-19.661-0.819-50.79-18.842-71.27s-44.237-22.118-58.982-22.118h-69.632c-34.406 0-50.79 9.011-58.982 18.022-14.746 16.384-15.565 46.694-15.565 58.982v102.4z" />
<glyph unicode="&#xe906;" glyph-name="07" d="M12.8 365.227c0-50.347 6.827-145.92 71.68-191.147 48.64-33.28 124.587-29.013 168.96-29.013s120.32-4.267 168.96 29.013c34.987 23.893 71.68 76.8 71.68 191.147v171.52c0 97.28-34.133 146.773-62.293 171.52-47.787 41.813-113.493 44.373-178.347 44.373s-130.56-2.56-178.347-44.373c-28.16-24.747-62.293-74.24-62.293-171.52v-171.52zM125.44 531.627c0 28.16 2.56 77.653 38.4 106.667 23.040 18.773 63.147 24.747 89.6 24.747s66.56-5.973 89.6-24.747c35.84-29.013 38.4-78.507 38.4-106.667v-153.6c0-34.987-1.707-84.48-25.6-112.64-27.307-30.72-69.973-30.72-102.4-30.72-30.72 0-76.8 0-103.253 30.72-17.92 21.333-24.747 57.173-24.747 112.64v153.6zM572.207 149.333h125.44l294.4 465.92c13.653 21.333 20.48 40.96 20.48 69.12 0 30.72-8.533 62.293-65.707 62.293h-410.453v-89.6h335.36c6.827 0 17.92 0 17.92-11.093 0-5.12-1.707-10.24-9.387-22.187l-308.053-474.453z" />
<glyph unicode="&#xe907;" glyph-name="arrow-back" d="M853.333 490.667h-519.253l238.507 238.507-60.587 60.16-341.333-341.333 341.333-341.333 60.16 60.16-238.080 238.507h519.253v85.333z" />
<glyph unicode="&#xe908;" glyph-name="arrow-increase" d="M256 448l45.12-45.123 178.88 178.563v-389.44h64v389.44l178.56-178.88 45.44 45.44-256 256-256-256z" />
<glyph unicode="&#xe909;" glyph-name="cabinet-icon" d="M511.999 447.997c134.705 0 243.809 109.105 243.809 243.809s-109.104 243.81-243.809 243.81c-134.705 0-243.809-109.105-243.809-243.81s109.104-243.809 243.809-243.809zM511.999 326.092c-162.743 0-487.619-81.676-487.619-243.806v-121.907h975.235v121.907c0 162.131-324.873 243.806-487.616 243.806z" />
<glyph unicode="&#xe90a;" glyph-name="calendar-icon" d="M853.333 832h-42.667v85.333h-85.333v-85.333h-426.667v85.333h-85.333v-85.333h-42.667c-46.933 0-85.333-38.4-85.333-85.333v-682.667c0-46.933 38.4-85.333 85.333-85.333h682.667c46.933 0 85.333 38.4 85.333 85.333v682.667c0 46.933-38.4 85.333-85.333 85.333zM853.333 64h-682.667v554.667h682.667v-554.667z" />
<glyph unicode="&#xe90b;" glyph-name="category-arrow-down" d="M853.333 448l-60.16 60.16-238.507-238.080v519.253h-85.333v-519.253l-238.080 238.507-60.587-60.587 341.333-341.333 341.333 341.333z" />
<glyph unicode="&#xe90c;" glyph-name="category-arrow-up" d="M170.667 448l60.16-60.16 238.507 238.080v-519.253h85.333v519.253l238.080-238.507 60.587 60.587-341.333 341.333-341.333-341.333z" />
<glyph unicode="&#xe90d;" glyph-name="category-arrow" d="M532.413 185.855l483.058 483.056c11.374 11.374 11.374 29.614 0 40.988s-29.616 11.374-40.989 0l-462.455-462.455-462.455 462.455c-11.374 11.374-29.614 11.374-40.988 0-5.579-5.58-8.584-13.090-8.584-20.387s2.79-14.807 8.584-20.387l483.056-483.056c11.159-11.374 29.615-11.374 40.773-0.214z" />
<glyph unicode="&#xe90e;" glyph-name="category-checkbox-choose" d="M810.665 832h-597.331c-47.36 0-85.334-38.4-85.334-85.334v-597.331c0-46.935 37.974-85.335 85.334-85.335h597.331c47.36 0 85.335 38.4 85.335 85.335v597.331c0 46.934-37.975 85.334-85.335 85.334zM426.666 234.665l-213.333 213.335 60.16 60.16 153.173-152.745 323.838 323.838 60.16-60.587-383.998-384.002z" />
<glyph unicode="&#xe90f;" glyph-name="category-checkbox" d="M885.331 821.333v-746.664h-746.664v746.664h746.664zM885.331 928h-746.664c-58.667 0-106.667-48-106.667-106.667v-746.664c0-58.669 48-106.669 106.667-106.669h746.664c58.669 0 106.669 48 106.669 106.669v746.664c0 58.667-48 106.667-106.669 106.667z" />
<glyph unicode="&#xe910;" glyph-name="category-close" d="M989.859 829.644l-96.256 96.256-381.611-381.61-381.611 381.61-96.256-96.256 381.611-381.61-381.611-381.611 96.256-96.256 381.611 381.611 381.611-381.611 96.256 96.256-381.611 381.611 381.611 381.61z" />
<glyph unicode="&#xe911;" glyph-name="category-plus" d="M989.859 379.767h-409.6v-409.6h-136.534v409.6h-409.6v136.533h409.6v409.6h136.534v-409.6h409.6v-136.533z" />
<glyph unicode="&#xe912;" glyph-name="clear-star" d="M986.078 550.437l-340.861 29.393-133.212 313.837-133.215-314.311-340.859-28.918 258.845-224.236-77.748-333.272 292.978 176.828 292.979-176.828-77.278 333.272 258.372 224.236zM512.005 258.406l-178.252-107.611 47.407 202.9-157.393 136.534 207.645 18.014 80.592 191.052 81.068-191.526 207.644-18.015-157.394-136.532 47.406-202.906-178.723 108.089z" />
<glyph unicode="&#xe913;" glyph-name="close-icon" d="M810.662 686.507l-60.16 60.16-238.509-238.507-238.506 238.507-60.16-60.16 238.506-238.507-238.506-238.506 60.16-60.16 238.506 238.506 238.509-238.506 60.16 60.16-238.509 238.506 238.509 238.507z" />
<glyph unicode="&#xe914;" glyph-name="close-small" d="M1024.007 856.904l-103.131 103.131-408.867-408.868-408.869 408.868-103.131-103.131 408.868-408.869-408.868-408.868 103.131-103.131 408.869 408.868 408.867-408.868 103.131 103.131-408.867 408.868 408.867 408.869z" />
<glyph unicode="&#xe915;" glyph-name="compare-printer" d="M870.4 652.8h-716.8c-84.992 0-153.6-68.608-153.6-153.6v-307.2h204.8v-204.8h614.4v204.8h204.8v307.2c0 84.992-68.608 153.6-153.6 153.6zM716.8 89.6h-409.6v256h409.6v-256zM870.4 448c-28.16 0-51.2 23.040-51.2 51.2s23.040 51.2 51.2 51.2c28.16 0 51.2-23.040 51.2-51.2s-23.040-51.2-51.2-51.2zM819.2 908.8h-614.4v-204.8h614.4v204.8z" />
<glyph unicode="&#xe916;" glyph-name="compare-ratio-choose" d="M512 704c-141.312 0-256-114.688-256-256s114.688-256 256-256c141.312 0 256 114.688 256 256s-114.688 256-256 256zM512 960c-282.624 0-512-229.376-512-512s229.376-512 512-512c282.624 0 512 229.376 512 512s-229.376 512-512 512zM512 38.4c-226.304 0-409.6 183.296-409.6 409.6s183.296 409.6 409.6 409.6c226.304 0 409.6-183.296 409.6-409.6s-183.296-409.6-409.6-409.6z" />
<glyph unicode="&#xe917;" glyph-name="compare-ratio" d="M512 960c-282.624 0-512-229.376-512-512s229.376-512 512-512c282.624 0 512 229.376 512 512s-229.376 512-512 512zM512 38.4c-226.304 0-409.6 183.296-409.6 409.6s183.296 409.6 409.6 409.6c226.304 0 409.6-183.296 409.6-409.6s-183.296-409.6-409.6-409.6z" />
<glyph unicode="&#xe918;" glyph-name="compare-trash" d="M256 149.333c0-46.933 38.4-85.333 85.333-85.333h341.333c46.933 0 85.333 38.4 85.333 85.333v512h-512v-512zM360.96 453.12l60.16 60.16 90.88-90.453 90.453 90.453 60.16-60.16-90.453-90.453 90.453-90.453-60.16-60.16-90.453 90.453-90.453-90.453-60.16 60.16 90.453 90.453-90.88 90.453zM661.333 789.333l-42.667 42.667h-213.333l-42.667-42.667h-149.333v-85.333h597.333v85.333h-149.333z" />
<glyph unicode="&#xe919;" glyph-name="configuration-add" d="M810.667 832h-597.333c-47.36 0-85.333-38.4-85.333-85.333v-597.333c0-46.933 37.973-85.333 85.333-85.333h597.333c47.36 0 85.333 38.4 85.333 85.333v597.333c0 46.933-37.973 85.333-85.333 85.333zM426.667 234.667l-213.333 213.333 60.16 60.16 153.173-152.747 323.84 323.84 60.16-60.587-384-384z" />
<glyph unicode="&#xe91a;" glyph-name="configuration-drop-down" d="M0 704l512-512 512 512h-1024z" />
<glyph unicode="&#xe91b;" glyph-name="configuration-menu" d="M128 64h768v85.333h-768v-85.333zM128 618.667v-341.333l170.667 170.667-170.667 170.667zM469.333 234.667h426.667v85.333h-426.667v-85.333zM128 832v-85.333h768v85.333h-768zM469.333 576h426.667v85.333h-426.667v-85.333zM469.333 405.333h426.667v85.333h-426.667v-85.333z" />
<glyph unicode="&#xe91c;" glyph-name="configuration-settings" d="M527.247 460.899v470.319c0 15.99-12.79 28.782-28.78 28.782s-28.782-12.792-28.782-28.782v-470.319c-66.732-13.431-117.26-72.49-117.26-143.269 0-70.784 50.528-129.838 117.26-143.273v-209.362c0-15.99 12.792-28.78 28.782-28.78s28.78 12.79 28.78 28.78v209.362c66.734 13.435 117.263 72.489 117.263 143.273 0 70.569-50.314 129.838-117.263 143.269zM498.467 229.151c-48.823 0-88.478 39.654-88.478 88.479 0 48.819 39.655 88.479 88.478 88.479 48.825 0 88.479-39.66 88.479-88.479 0-48.824-39.654-88.479-88.479-88.479zM174.824 702.241v228.977c0 15.99-12.792 28.782-28.782 28.782s-28.782-12.792-28.782-28.782v-228.977c-66.732-13.432-117.26-72.488-117.26-143.271s50.528-129.838 117.26-143.272v-450.703c0-15.99 12.792-28.78 28.782-28.78s28.782 12.79 28.782 28.78v450.918c66.732 13.43 117.26 72.488 117.26 143.271s-50.529 129.626-117.26 143.057zM146.042 470.493c-48.823 0-88.478 39.655-88.478 88.478s39.655 88.478 88.478 88.478c48.823 0 88.478-39.655 88.478-88.478s-39.868-88.478-88.478-88.478zM877.522 702.241v228.977c0 15.99-12.79 28.782-28.78 28.782s-28.785-12.792-28.785-28.782v-228.977c-66.729-13.432-117.258-72.488-117.258-143.271s50.529-129.838 117.258-143.272v-450.918c0-15.99 12.795-28.78 28.785-28.78s28.78 12.79 28.78 28.78v451.133c66.734 13.43 117.263 72.488 117.263 143.271s-50.314 129.626-117.263 143.057zM848.742 470.493c-48.824 0-88.479 39.655-88.479 88.478s39.654 88.478 88.479 88.478c48.824 0 88.479-39.655 88.479-88.478s-39.654-88.478-88.479-88.478z" />
<glyph unicode="&#xe91d;" glyph-name="copy-icon" d="M512.023 960.042c-282.763 0-512.023-229.26-512.023-512s229.26-511.999 512.023-511.999c282.764 0 511.977 229.258 511.977 511.999s-229.213 512-511.977 512zM512.023-17.365c-257.047 0-465.431 208.313-465.431 465.407s208.384 465.408 465.431 465.408c257.048 0 465.428-208.314 465.428-465.408s-208.38-465.407-465.428-465.407zM512.023 703.995c70.68 0 134.703-28.579 180.992-74.915l32.908 32.861c-54.714 54.738-130.374 88.646-213.9 88.646-167.098 0-302.545-135.494-302.545-302.545s135.447-302.546 302.545-302.546c83.526 0 159.186 33.909 213.9 88.646l-32.908 32.861c-46.289-46.312-110.312-74.915-180.992-74.915-141.382 0-256.023 114.572-256.023 255.954s114.641 255.953 256.023 255.953z" />
<glyph unicode="&#xe91e;" glyph-name="danger" d="M1014.989 107.806l-449.263 745.059c-11.354 18.83-31.74 30.344-53.726 30.344-21.99 0-42.377-11.512-53.73-30.344l-449.258-745.059c-11.684-19.379-12.030-43.546-0.902-63.249s32.002-31.889 54.63-31.889h898.519c22.626 0 43.503 12.186 54.63 31.889s10.782 43.87-0.9 63.249zM512.333 625.484c25.805 0 47.633-14.556 47.633-40.356 0-78.726-9.259-191.857-9.259-270.586 0-20.51-22.494-29.107-38.374-29.107-21.167 0-39.031 8.602-39.031 29.107 0 78.729-9.259 191.859-9.259 270.586 0 25.8 21.167 40.356 48.29 40.356zM512.994 137.903c-29.107 0-50.94 23.817-50.94 50.94 0 27.785 21.833 50.94 50.94 50.94 27.127 0 50.283-23.155 50.283-50.94 0-27.123-23.155-50.94-50.283-50.94z" />
<glyph unicode="&#xe91f;" glyph-name="delivery-truck-project" d="M85.333 106.667c0-47.13 38.205-85.333 85.333-85.333s85.333 38.204 85.333 85.333c0 47.13-38.205 85.333-85.333 85.333s-85.333-38.204-85.333-85.333zM85.333 704c0-47.128 38.205-85.333 85.333-85.333s85.333 38.205 85.333 85.333c0 47.128-38.205 85.333-85.333 85.333s-85.333-38.205-85.333-85.333zM810.667 362.667v554.667c0 11.316-4.497 22.168-12.497 30.17s-18.854 12.497-30.17 12.497h-554.667c-11.316 0-22.168-4.495-30.17-12.497s-12.497-18.854-12.497-30.17v-85.333c33.948 0 66.505-13.486 90.51-37.49s37.49-56.562 37.49-90.51c0-33.948-13.486-66.505-37.49-90.51s-56.562-37.49-90.51-37.49v-213.333c0-11.315 4.495-22.17 12.497-30.17s18.854-12.497 30.17-12.497h554.667c11.315 0 22.17 4.497 30.17 12.497s12.497 18.854 12.497 30.17zM341.333 448v213.333h85.333v-213.333h-85.333zM469.333 448v298.667h85.333v-298.667h-85.333zM597.333 448v384h85.333v-384h-85.333zM554.667 192v-191.019l58.513 23.403c7.915 3.166 14.703 8.636 19.486 15.697 4.779 7.061 7.334 15.39 7.334 23.919v213.333h-469.333v-42.667c33.948 0 66.505-13.487 90.51-37.491s37.49-56.563 37.49-90.509c0-33.95-13.486-66.505-37.49-90.509s-56.562-37.491-90.51-37.491c0-11.315 4.495-22.17 12.497-30.17s18.854-12.497 30.17-12.497h170.667v256h170.667z" />
<glyph unicode="&#xe920;" glyph-name="delivery-truck" d="M853.335 21.335c47.124 0 85.33 38.205 85.33 85.33 0 47.13-38.205 85.335-85.33 85.335-47.13 0-85.335-38.205-85.335-85.335 0-47.124 38.205-85.33 85.335-85.33zM256.002 21.335c47.128 0 85.334 38.205 85.334 85.33 0 47.13-38.205 85.335-85.334 85.335s-85.334-38.205-85.334-85.335c0-47.124 38.205-85.33 85.334-85.33zM597.335 746.662h-554.668c-11.316 0-22.168-4.495-30.17-12.497s-12.497-18.854-12.497-30.17v-554.666c0-11.315 4.495-22.17 12.497-30.172 8.002-7.997 18.854-12.493 30.17-12.493h85.333c0 33.946 13.486 66.504 37.49 90.506 24.005 24.008 56.562 37.494 90.51 37.494s66.505-13.486 90.51-37.494c24.005-24.003 37.49-56.561 37.49-90.506h213.335c11.315 0 22.164 4.495 30.167 12.493 8.003 8.003 12.498 18.857 12.498 30.172v554.666c0 11.316-4.495 22.168-12.498 30.17s-18.852 12.497-30.167 12.497zM512 277.33h-213.334v85.335h213.334v-85.335zM512 405.33h-298.666v85.332h298.666v-85.332zM512 533.329h-384v85.333h384v-85.333zM768 490.666h191.022l-23.404 58.512c-3.169 7.918-8.632 14.705-15.698 19.485-7.060 4.781-15.391 7.336-23.921 7.336h-213.33v-469.335h42.665c0 33.951 13.486 66.509 37.489 90.511 24.008 24.003 56.566 37.489 90.511 37.489s66.504-13.486 90.511-37.489c24.003-24.003 37.489-56.561 37.489-90.511 11.315 0 22.17 4.495 30.172 12.498 7.997 8.003 12.493 18.857 12.493 30.172v170.665h-256v170.666z" />
<glyph unicode="&#xe921;" glyph-name="ellipsis" d="M512 618.667c46.933 0 85.333 38.4 85.333 85.333s-38.4 85.333-85.333 85.333c-46.933 0-85.333-38.4-85.333-85.333s38.4-85.333 85.333-85.333zM512 533.333c-46.933 0-85.333-38.4-85.333-85.333s38.4-85.333 85.333-85.333c46.933 0 85.333 38.4 85.333 85.333s-38.4 85.333-85.333 85.333zM512 277.333c-46.933 0-85.333-38.4-85.333-85.333s38.4-85.333 85.333-85.333c46.933 0 85.333 38.4 85.333 85.333s-38.4 85.333-85.333 85.333z" />
<glyph unicode="&#xe922;" glyph-name="exit-cabinet" d="M810.665 832h-597.331c-47.36 0-85.334-38.4-85.334-85.334v-170.666h85.334v170.666h597.331v-597.331h-597.331v170.665h-85.334v-170.665c0-46.935 37.974-85.335 85.334-85.335h597.331c46.935 0 85.335 38.4 85.335 85.335v597.331c0 46.934-38.4 85.334-85.335 85.334zM401.494 601.169l-60.16 60.16-213.334-213.335 213.334-213.33 60.16 60.16-110.080 110.505h412.586v85.332h-412.586l110.080 110.507z" />
<glyph unicode="&#xe923;" glyph-name="fb-icon-black" d="M874.001 960h-724.001c-82.703 0-150-67.297-150-150v-724.001c0-82.701 67.297-149.999 150-149.999h302.002v362.001h-120.002v179.998h120.002v122.001c0 99.258 80.738 180 179.998 180h181.999v-180h-181.999v-122.001h181.999l-29.999-179.998h-152v-362.001h242.001c82.701 0 149.999 67.298 149.999 149.999v724.001c0 82.703-67.298 150-149.999 150z" />
<glyph unicode="&#xe924;" glyph-name="fb-icon" d="M874.001 960h-724.001c-82.703 0-150-67.297-150-150v-724.001c0-82.701 67.297-149.999 150-149.999h302.002v362.001h-120.002v179.998h120.002v122.001c0 99.258 80.738 180 179.998 180h181.999v-180h-181.999v-122.001h181.999l-29.999-179.998h-152v-362.001h242.001c82.701 0 149.999 67.298 149.999 149.999v724.001c0 82.703-67.298 150-149.999 150z" />
<glyph unicode="&#xe925;" glyph-name="full-star" d="M512.003 169.734l292.981-176.833-77.75 333.278 258.844 224.234-340.861 28.919-133.214 314.311-133.215-314.311-340.859-28.919 258.845-224.234-77.748-333.278 292.978 176.833z" />
<glyph unicode="&#xe926;" glyph-name="half-star" d="M986.078 550.437l-340.861 29.393-133.212 313.837-133.215-314.311-340.859-28.918 258.845-224.236-77.748-333.272 292.978 176.828 292.979-176.828-77.278 333.272 258.372 224.236zM512.005 258.406v440.89l81.068-191.526 207.644-18.015-157.394-136.532 47.406-202.906-178.723 108.089z" />
<glyph unicode="&#xe927;" glyph-name="icon-gift" d="M64 416.556v-383.998c0-35.328 28.736-64 64-64h320v447.998h-384zM960 672.676h-202.496c14.529 9.92 27.005 19.776 35.709 28.608 51.649 51.904 51.649 136.384 0 188.288-50.176 50.56-137.597 50.432-187.711 0-27.773-27.84-101.374-141.184-91.199-216.896h-4.608c10.112 75.712-63.488 189.056-91.2 216.896-50.176 50.432-137.601 50.432-187.712 0-51.584-51.904-51.584-136.384-0.064-188.288 8.768-8.832 21.248-18.688 35.776-28.608h-202.496c-35.264 0-64-28.736-64-64v-96c0-17.664 14.336-32 32-32h416v128h128v-128h416c17.664 0 32 14.336 32 32v96c0 35.264-28.672 64-64 64zM444.224 674.789c0 0-2.689-2.112-11.84-2.112-44.224 0-128.64 45.952-156.224 73.728-26.816 27.008-26.816 71.040 0 98.048 12.992 13.056 30.209 20.224 48.512 20.224 18.24 0 35.456-7.168 48.448-20.224 43.136-43.392 86.016-154.24 71.104-169.664zM591.553 672.676c-9.091 0-11.776 2.048-11.776 2.112-14.913 15.424 27.967 126.272 71.1 169.664 25.793 26.048 70.918 26.176 96.961 0 26.88-27.008 26.88-71.040 0-98.048-27.58-27.776-111.997-73.728-156.285-73.728zM576 416.556v-447.998h320c35.328 0 64 28.672 64 64v383.998h-384z" />
<glyph unicode="&#xe928;" glyph-name="icon-pencil" d="M128 223.979v-160h160l471.893 471.891-160 160-471.893-471.891zM883.627 659.603c16.64 16.64 16.64 43.52 0 60.16l-99.84 99.84c-16.64 16.64-43.52 16.64-60.16 0l-78.080-78.080 160-160 78.080 78.080z" />
<glyph unicode="&#xe929;" glyph-name="icon-user-arrow" d="M707.84 593.489l-195.84-195.414-195.84 195.414-60.16-60.16 256-256 256 256-60.16 60.16z" />
<glyph unicode="&#xe92a;" glyph-name="inst-icon-black" d="M874.001 960h-724.001c-82.703 0-150-67.297-150-150v-724.001c0-82.701 67.297-149.999 150-149.999h724.001c82.701 0 149.999 67.298 149.999 149.999v724.001c0 82.703-67.298 150-149.999 150zM514.001 180.002c-148.884 0-270.001 121.114-270.001 269.999 0 148.882 121.117 269.999 270.001 269.999 148.881 0 269.999-121.117 269.999-269.999 0-148.885-121.118-269.999-269.999-269.999zM813.999 660c-49.626 0-89.997 40.375-89.997 90s40.371 90 89.997 90c49.626 0 90.001-40.375 90.001-90s-40.375-90-90.001-90z" />
<glyph unicode="&#xe92b;" glyph-name="inst-icon" d="M874.001 960h-724.001c-82.703 0-150-67.297-150-150v-724.001c0-82.701 67.297-149.999 150-149.999h724.001c82.701 0 149.999 67.298 149.999 149.999v724.001c0 82.703-67.298 150-149.999 150zM514.001 180.002c-148.884 0-270.001 121.114-270.001 269.999 0 148.882 121.117 269.999 270.001 269.999 148.881 0 269.999-121.117 269.999-269.999 0-148.885-121.118-269.999-269.999-269.999zM813.999 660c-49.626 0-89.997 40.375-89.997 90s40.371 90 89.997 90c49.626 0 90.001-40.375 90.001-90s-40.375-90-90.001-90z" />
<glyph unicode="&#xe92c;" glyph-name="item-clear-star" d="M999.621 546.011l-350.6 30.232-137.021 322.804-137.021-323.291-350.598-29.745 266.24-230.644-79.969-342.796 301.349 181.884 301.348-181.884-79.484 342.796 265.757 230.644zM512.001 245.637l-183.345-110.689 48.762 208.7-161.889 140.434 213.577 18.53 82.895 196.51 83.383-196.998 213.576-18.529-161.889-140.434 48.761-208.703-183.832 111.179z" />
<glyph unicode="&#xe92d;" glyph-name="item-full-star" d="M512.001 154.448l301.348-181.884-79.967 342.799 266.24 230.644-350.6 29.745-137.021 323.291-137.021-323.291-350.598-29.745 266.24-230.644-79.969-342.799 301.349 181.884z" />
<glyph unicode="&#xe92e;" glyph-name="languages-icon" d="M32 704.016l480-480 480 480h-960z" />
<glyph unicode="&#xe92f;" d="M996.618 483.498c-7.094 0-13.035-2.169-17.832-6.501-4.792-4.334-7.191-10.442-7.191-18.321 0-6.566 1.941-12.411 5.816-17.534 3.875-5.122 9.816-7.683 17.827-7.683 9.454 0 19.043 3.942 28.763 11.82l-1.38-47.871c-12.871-3.939-22.981-5.91-30.335-5.91-11.298 0-22.166 2.497-32.604 7.488-10.444 4.991-18.879 12.476-25.317 22.458-6.433 9.981-9.652 22.194-9.652 36.641 0 11.295 2.399 22.062 7.191 32.307s12.248 18.551 22.358 24.922c10.116 6.368 22.72 9.554 37.826 9.554 9.98 0 20.356-2.036 31.127-6.108v-47.477c-7.881 8.143-16.746 12.216-26.596 12.216z" />
<glyph unicode="&#xe930;" d="M829.564 394.643v127.654h85.496v-34.869h-40.383v-12.213h36.445v-32.702h-36.445v-13.395h41.175v-34.475h-86.288z" />
<glyph unicode="&#xe931;" d="M747.809 394.643v85.694h-25.606v41.96h96.924v-41.96h-25.611v-85.694h-45.707z" />
<glyph unicode="&#xe932;" d="M542.144 483.488c-7.092 0-13.034-2.169-17.829-6.501-4.793-4.334-7.189-10.442-7.189-18.321 0-6.566 1.938-12.411 5.812-17.534 3.874-5.122 9.816-7.683 17.828-7.683 9.456 0 19.044 3.942 28.76 11.82l-1.375-47.871c-12.874-3.939-22.986-5.91-30.341-5.91-11.293 0-22.162 2.497-32.602 7.488-10.442 4.991-18.879 12.476-25.314 22.458s-9.654 22.194-9.654 36.641c0 11.295 2.396 22.062 7.192 32.307 4.792 10.245 12.246 18.551 22.357 24.922 10.114 6.368 22.72 9.554 37.824 9.554 9.982 0 20.357-2.036 31.127-6.108v-47.477c-7.881 8.143-16.745 12.216-26.595 12.216z" />
<glyph unicode="&#xe933;" d="M371.347 394.66v127.654h45.902v-86.482h44.718v-41.172h-90.619z" />
<glyph unicode="&#xe934;" d="M223.010 394.66l45.111 127.654h51.023l44.72-127.654h-49.448l-3.939 16.154h-34.475l-4.137-16.154h-48.854zM302.595 441.151l-9.062 42.356h-0.985l-9.062-42.356h19.109z" />
<glyph unicode="&#xe935;" d="M646.749 525.071c9.72 0 18.681-1.74 26.896-5.221 8.203-3.481 15.394-8.241 21.566-14.281 6.172-6.043 11.032-13.199 14.579-21.473s5.318-16.876 5.318-25.809c0-12.080-3.049-23.244-9.159-33.489-6.104-10.244-14.449-18.353-25.017-24.328-10.574-5.977-21.968-8.965-34.182-8.965s-23.603 2.988-34.177 8.965c-10.574 5.975-18.913 14.084-25.017 24.328-6.11 10.245-9.165 21.409-9.165 33.489 0 8.933 1.776 17.502 5.324 25.708 3.542 8.209 8.435 15.401 14.675 21.574 6.235 6.17 13.459 10.966 21.668 14.378 8.209 3.416 17.108 5.124 26.692 5.124zM646.749 482.124c-5.906 0-11.032-2.364-15.366-7.092s-6.5-10.44-6.5-17.139c0-6.698 2.167-12.41 6.5-17.139s9.459-7.092 15.366-7.092c5.912 0 11.032 2.331 15.366 6.994s6.506 10.407 6.506 17.236c0 6.829-2.172 12.577-6.506 17.237-4.334 4.663-9.454 6.994-15.366 6.994z" />
<glyph unicode="&#xe936;" d="M0 315.975h123.456v127.104h-123.456v-127.104zM29.525 346.385v66.285h64.405v-66.285h-64.405z" />
<glyph unicode="&#xe937;" d="M75.96 395.086h123.479v127.094h-123.479v-127.094zM105.496 425.491v66.284h64.406v-66.284h-64.406z" />
<glyph unicode="&#xe938;" d="M0.015 473.65h123.457v127.101h-123.457v-127.101zM29.541 504.059v66.285h64.405v-66.285h-64.405z" />
<glyph unicode="&#xe939;" d="M75.962 443.139h47.623v-48.017h-47.623v48.017z" />
<glyph unicode="&#xe93a;" d="M75.964 473.616v48.564h47.492v-48.564h-47.492z" />
<glyph unicode="&#xe93b;" d="M222.067 376.437h8.098v-37.104l11.321 11.651h10.743l-14.957-14.462 16.033-20.328h-10.247l-11.405 14.875-1.487-1.486v-13.388h-8.098v60.243zM258.592 350.983h8.099v-34.79h-8.099v34.79zM257.435 365.363c0 1.487 0.481 2.726 1.446 3.719s2.217 1.486 3.759 1.486c1.488-0.055 2.728-0.564 3.72-1.529 0.989-0.962 1.486-2.189 1.486-3.676 0-1.543-0.497-2.795-1.486-3.761-0.992-0.965-2.232-1.446-3.72-1.446-1.542 0-2.795 0.481-3.759 1.446s-1.446 2.217-1.446 3.761zM291.482 343.547h-6.199v-27.354h-8.099v27.354h-3.388v7.436h3.388v12.725h8.099v-12.725h6.199v-7.436zM323.876 349.413v-10.66c-1.103 1.818-2.549 3.25-4.34 4.297-1.789 1.046-3.703 1.57-5.743 1.57-2.809 0-5.247-0.991-7.312-2.975-2.066-1.983-3.099-4.683-3.099-8.099 0-3.195 0.95-5.852 2.851-7.975 1.899-2.121 4.393-3.182 7.479-3.182 1.982 0 3.897 0.511 5.743 1.529 1.844 1.020 3.318 2.493 4.421 4.421v-10.659c-1.599-0.937-3.169-1.599-4.711-1.985s-3.168-0.577-4.877-0.577c-3.085 0.053-5.784 0.481-8.098 1.28-2.313 0.799-4.352 2.136-6.114 4.008-1.599 1.598-2.824 3.484-3.678 5.66s-1.281 4.643-1.281 7.396c0 2.811 0.483 5.358 1.446 7.645s2.355 4.31 4.174 6.073c1.763 1.653 3.663 2.851 5.703 3.594 2.037 0.746 4.571 1.116 7.602 1.116 1.927 0 3.677-0.206 5.247-0.619s3.098-1.033 4.587-1.86zM331.645 316.193v60.243h8.099v-28.429c1.211 1.268 2.589 2.232 4.131 2.895 1.544 0.66 3.28 0.99 5.207 0.99 2.26 0 4.27-0.426 6.033-1.28s3.167-1.998 4.215-3.431c0.771-1.156 1.335-2.479 1.695-3.965 0.358-1.488 0.536-3.388 0.536-5.703v-21.321h-8.099v20.577c0 1.653-0.123 2.905-0.372 3.759-0.247 0.854-0.647 1.612-1.199 2.274-0.549 0.549-1.239 0.99-2.066 1.32-0.825 0.332-1.653 0.496-2.479 0.496-1.156-0.055-2.287-0.33-3.388-0.827s-1.955-1.184-2.562-2.066c-0.605-0.882-1.033-2.011-1.28-3.388-0.249-1.378-0.373-3.169-0.373-5.371v-16.777h-8.099zM396.763 329.085l6.777-3.801c-0.605-1.103-1.308-2.191-2.106-3.264-0.798-1.076-1.612-1.97-2.438-2.686-1.598-1.432-3.444-2.493-5.538-3.181-2.093-0.691-4.131-1.033-6.116-1.033-5.342 0.053-9.572 1.776-12.683 5.164-3.113 3.388-4.67 7.754-4.67 13.098 0 5.454 1.544 9.902 4.628 13.346s7.188 5.164 12.312 5.164c2.645 0 5.111-0.537 7.398-1.612 2.284-1.073 4.171-2.657 5.66-4.751 1.045-1.541 1.832-3.401 2.356-5.577s0.811-4.532 0.866-7.066v-1.239h-24.956c0.055-2.701 0.965-4.917 2.726-6.653 1.763-1.736 3.995-2.605 6.695-2.605 0.937 0 1.887 0.153 2.851 0.455s1.859 0.786 2.686 1.447c0.66 0.496 1.307 1.171 1.942 2.025 0.633 0.854 1.169 1.776 1.61 2.769zM378.83 338.257h16.116c-0.496 1.929-1.461 3.458-2.894 4.587s-3.139 1.72-5.124 1.776c-1.982 0-3.703-0.592-5.164-1.776-1.458-1.184-2.438-2.713-2.935-4.587zM411.887 316.193v34.79h8.099v-3.222c1.211 1.378 2.589 2.41 4.131 3.098 1.544 0.69 3.307 1.033 5.29 1.033 2.259-0.055 4.257-0.481 5.99-1.28 1.736-0.798 3.156-1.942 4.257-3.431 0.771-1.212 1.307-2.562 1.612-4.048 0.302-1.488 0.48-3.361 0.536-5.62v-21.321h-8.099v19.338c-0.055 3.195-0.523 5.51-1.405 6.94-0.881 1.434-2.534 2.149-4.957 2.149-2.864 0-4.822-0.937-5.867-2.809-1.048-1.874-1.544-4.848-1.488-8.925v-16.693h-8.099zM471.304 316.193v60.243h8.099v-28.429c1.211 1.268 2.589 2.232 4.131 2.895 1.544 0.66 3.28 0.99 5.207 0.99 2.26 0 4.27-0.426 6.033-1.28s3.166-1.998 4.215-3.431c0.771-1.156 1.335-2.479 1.694-3.965 0.358-1.488 0.537-3.388 0.537-5.703v-21.321h-8.099v20.577c0 1.653-0.123 2.905-0.373 3.759-0.247 0.854-0.647 1.612-1.199 2.274-0.549 0.549-1.239 0.99-2.066 1.32-0.827 0.332-1.653 0.496-2.479 0.496-1.156-0.055-2.287-0.33-3.389-0.827-1.1-0.496-1.955-1.184-2.561-2.066s-1.033-2.011-1.28-3.388c-0.249-1.378-0.373-3.169-0.373-5.371v-16.777h-8.099zM528.243 351.892c5.287 0 9.709-1.736 13.263-5.207 3.554-3.469 5.33-7.849 5.33-13.138 0-5.343-1.776-9.751-5.33-13.222s-7.975-5.205-13.263-5.205c-5.345 0-9.779 1.733-13.305 5.205s-5.29 7.879-5.29 13.222c0 5.289 1.763 9.67 5.29 13.138 3.526 3.471 7.96 5.207 13.305 5.207zM528.243 322.39c3.139 0 5.646 0.992 7.519 2.975 1.874 1.985 2.809 4.683 2.809 8.099 0 3.307-0.935 5.992-2.809 8.057s-4.381 3.099-7.519 3.099c-3.196 0-5.716-1.033-7.562-3.099s-2.768-4.751-2.768-8.057c0-3.416 0.923-6.114 2.768-8.099 1.847-1.982 4.366-2.975 7.562-2.975zM555.265 316.193v34.79h8.098v-3.222c1.101 1.322 2.383 2.327 3.843 3.015 1.46 0.691 3.044 1.061 4.752 1.116 1.816 0 3.525-0.441 5.126-1.323 1.595-0.882 2.891-2.148 3.881-3.801 1.16 1.653 2.642 2.919 4.464 3.801 1.816 0.882 3.774 1.323 5.867 1.323s4.022-0.481 5.782-1.446c1.765-0.965 3.14-2.3 4.136-4.008 0.605-1.101 1.058-2.383 1.363-3.841 0.3-1.461 0.453-3.101 0.453-4.917v-21.487h-8.096v19.172c-0.057 1.378-0.141 2.589-0.249 3.635-0.113 1.048-0.277 1.901-0.498 2.562-0.441 0.992-1.058 1.75-1.861 2.274-0.798 0.522-1.72 0.784-2.766 0.784-0.99-0.055-1.912-0.303-2.766-0.743s-1.528-1.048-2.025-1.819c-0.549-0.771-0.95-1.748-1.199-2.932-0.249-1.186-0.373-2.851-0.373-4.999v-17.933h-8.096v19.172c0 1.378-0.068 2.589-0.209 3.635-0.136 1.048-0.311 1.901-0.537 2.562-0.436 0.992-1.058 1.75-1.856 2.274-0.798 0.522-1.72 0.784-2.772 0.784-0.99 0-1.912-0.235-2.766-0.703-0.854-0.466-1.528-1.088-2.024-1.859-0.549-0.771-0.962-1.748-1.24-2.932-0.274-1.186-0.385-2.851-0.33-4.999v-17.933h-8.098zM638.235 329.085l6.772-3.801c-0.605-1.103-1.307-2.191-2.105-3.264-0.798-1.076-1.612-1.97-2.438-2.686-1.595-1.432-3.445-2.493-5.539-3.181-2.093-0.691-4.13-1.033-6.116-1.033-5.341 0.053-9.572 1.776-12.684 5.164s-4.667 7.754-4.667 13.098c0 5.454 1.544 9.902 4.628 13.346s7.191 5.164 12.311 5.164c2.648 0 5.114-0.537 7.4-1.612 2.286-1.073 4.17-2.657 5.657-4.751 1.047-1.541 1.833-3.401 2.359-5.577 0.52-2.176 0.809-4.532 0.866-7.066v-1.239h-24.955c0.057-2.701 0.962-4.917 2.727-6.653 1.759-1.736 3.994-2.605 6.693-2.605 0.939 0 1.884 0.153 2.851 0.455 0.962 0.303 1.861 0.786 2.687 1.447 0.656 0.496 1.307 1.171 1.941 2.025s1.171 1.776 1.612 2.769zM620.301 338.257h16.118c-0.498 1.929-1.465 3.458-2.897 4.587s-3.14 1.72-5.126 1.776c-1.98 0-3.7-0.592-5.165-1.776-1.454-1.184-2.433-2.713-2.931-4.587zM698.147 346.935v4.048h8.096v-34.79h-8.096v3.635c-1.324-1.542-2.863-2.713-4.628-3.512s-3.689-1.197-5.782-1.197c-5.182 0-9.29 1.804-12.316 5.411-3.027 3.61-4.543 7.975-4.543 13.099 0 5.454 1.624 9.862 4.871 13.223 3.253 3.36 7.275 5.040 12.067 5.040 2.15 0 4.107-0.441 5.867-1.323 1.765-0.882 3.253-2.093 4.464-3.635zM688.807 344.62c-2.919 0-5.261-1.073-7.021-3.222-1.765-2.148-2.648-4.793-2.648-7.934-0.051-3.139 0.815-5.769 2.602-7.892 1.793-2.121 4.147-3.182 7.066-3.182 2.699 0 5.013 0.965 6.942 2.894 1.929 1.927 2.897 4.627 2.897 8.098 0 3.58-0.967 6.348-2.897 8.306-1.929 1.955-4.243 2.932-6.942 2.932zM724.59 320.242v-22.973h-8.101v53.715h8.101v-3.801c1.211 1.488 2.699 2.645 4.464 3.471 1.759 0.826 3.717 1.24 5.867 1.24 4.735 0 8.746-1.666 12.022-4.999s4.916-7.699 4.916-13.098c0-5.62-1.709-10.138-5.12-13.554-3.417-3.414-7.332-5.122-11.734-5.122-1.929 0-3.83 0.439-5.703 1.32-1.878 0.881-3.445 2.149-4.713 3.801zM733.931 344.62c-2.755 0-5.086-0.978-6.987-2.932-1.901-1.957-2.851-4.726-2.851-8.306 0-3.471 0.95-6.171 2.851-8.098 1.901-1.93 4.232-2.894 6.987-2.894 2.863 0 5.188 1.061 6.981 3.182 1.788 2.123 2.682 4.753 2.682 7.892 0 3.141-0.894 5.786-2.682 7.934-1.793 2.149-4.119 3.222-6.981 3.222zM768.385 320.242v-22.973h-8.096v53.715h8.096v-3.801c1.216 1.488 2.704 2.645 4.464 3.471 1.765 0.826 3.723 1.24 5.872 1.24 4.735 0 8.741-1.666 12.022-4.999 3.276-3.333 4.916-7.699 4.916-13.098 0-5.62-1.709-10.138-5.126-13.554-3.411-3.414-7.326-5.122-11.734-5.122-1.929 0-3.83 0.439-5.703 1.32s-3.44 2.149-4.713 3.801zM777.725 344.62c-2.755 0-5.080-0.978-6.981-2.932-1.901-1.957-2.851-4.726-2.851-8.306 0-3.471 0.95-6.171 2.851-8.098 1.901-1.93 4.226-2.894 6.981-2.894 2.863 0 5.194 1.061 6.981 3.182 1.793 2.123 2.687 4.753 2.687 7.892 0 3.141-0.894 5.786-2.687 7.934-1.788 2.149-4.119 3.222-6.981 3.222zM804.089 376.437h8.096v-60.243h-8.096v60.243zM822.43 350.983h8.101v-34.79h-8.101v34.79zM821.276 365.363c0 1.487 0.481 2.726 1.448 3.719 0.962 0.992 2.212 1.486 3.757 1.486 1.488-0.055 2.727-0.564 3.723-1.529 0.99-0.962 1.482-2.189 1.482-3.676 0-1.543-0.492-2.795-1.482-3.761-0.996-0.965-2.235-1.446-3.723-1.446-1.544 0-2.795 0.481-3.757 1.446-0.967 0.965-1.448 2.217-1.448 3.761zM866.23 346.935v4.048h8.101v-34.79h-8.101v3.635c-1.324-1.542-2.863-2.713-4.628-3.512s-3.689-1.197-5.782-1.197c-5.182 0-9.284 1.804-12.316 5.411-3.027 3.61-4.543 7.975-4.543 13.099 0 5.454 1.624 9.862 4.877 13.223 3.247 3.36 7.27 5.040 12.062 5.040 2.15 0 4.107-0.441 5.867-1.323 1.765-0.882 3.253-2.093 4.464-3.635zM856.896 344.62c-2.925 0-5.267-1.073-7.027-3.222-1.765-2.148-2.642-4.793-2.642-7.934-0.057-3.139 0.809-5.769 2.602-7.892 1.788-2.121 4.141-3.182 7.066-3.182 2.699 0 5.013 0.965 6.942 2.894 1.924 1.927 2.891 4.627 2.891 8.098 0 3.58-0.967 6.348-2.891 8.306-1.929 1.955-4.243 2.932-6.942 2.932zM884.493 316.193v34.79h8.101v-3.222c1.211 1.378 2.585 2.41 4.13 3.098 1.544 0.69 3.304 1.033 5.29 1.033 2.257-0.055 4.254-0.481 5.991-1.28 1.731-0.798 3.151-1.942 4.254-3.431 0.769-1.212 1.307-2.562 1.612-4.048 0.3-1.488 0.481-3.361 0.537-5.62v-21.321h-8.101v19.338c-0.051 3.195-0.52 5.51-1.403 6.94-0.883 1.434-2.535 2.149-4.956 2.149-2.868 0-4.826-0.937-5.867-2.809-1.052-1.874-1.544-4.848-1.488-8.925v-16.693h-8.101zM951.596 349.413v-10.66c-1.103 1.818-2.552 3.25-4.339 4.297s-3.706 1.57-5.742 1.57c-2.812 0-5.25-0.991-7.315-2.975-2.065-1.983-3.1-4.683-3.1-8.099 0-3.195 0.95-5.852 2.857-7.975 1.895-2.121 4.39-3.182 7.474-3.182 1.986 0 3.898 0.511 5.748 1.529 1.844 1.020 3.315 2.493 4.418 4.421v-10.659c-1.601-0.937-3.168-1.599-4.713-1.985-1.539-0.386-3.168-0.577-4.877-0.577-3.083 0.053-5.782 0.481-8.096 1.28s-4.351 2.136-6.116 4.008c-1.595 1.598-2.823 3.484-3.677 5.66s-1.279 4.643-1.279 7.396c0 2.811 0.481 5.358 1.443 7.645 0.967 2.287 2.359 4.31 4.175 6.073 1.765 1.653 3.66 2.851 5.703 3.594 2.037 0.746 4.571 1.116 7.604 1.116 1.924 0 3.677-0.206 5.244-0.619 1.573-0.414 3.1-1.033 4.588-1.86zM984.319 329.085l6.778-3.801c-0.605-1.103-1.307-2.191-2.105-3.264-0.798-1.076-1.612-1.97-2.438-2.686-1.601-1.432-3.445-2.493-5.539-3.181-2.093-0.691-4.13-1.033-6.116-1.033-5.341 0.053-9.572 1.776-12.684 5.164s-4.667 7.754-4.667 13.098c0 5.454 1.544 9.902 4.628 13.346s7.185 5.164 12.311 5.164c2.642 0 5.109-0.537 7.4-1.612 2.286-1.073 4.17-2.657 5.657-4.751 1.047-1.541 1.833-3.401 2.354-5.577 0.526-2.176 0.815-4.532 0.871-7.066v-1.239h-24.955c0.051-2.701 0.962-4.917 2.721-6.653 1.765-1.736 4-2.605 6.698-2.605 0.933 0 1.884 0.153 2.851 0.455 0.962 0.303 1.856 0.786 2.682 1.447 0.662 0.496 1.313 1.171 1.946 2.025s1.165 1.776 1.607 2.769zM966.39 338.257h16.112c-0.492 1.929-1.46 3.458-2.891 4.587s-3.14 1.72-5.126 1.776c-1.98 0-3.7-0.592-5.165-1.776-1.46-1.184-2.438-2.713-2.931-4.587zM1019.774 345.033l-6.693-3.552c-0.385 0.935-0.939 1.693-1.652 2.273-0.718 0.577-1.465 0.867-2.235 0.867-0.769-0.055-1.403-0.275-1.901-0.66-0.492-0.386-0.741-0.91-0.741-1.569-0.057-0.718 0.164-1.35 0.662-1.901 0.492-0.552 1.816-1.296 3.966-2.232 1.595-0.771 2.931-1.446 4.005-2.025 1.075-0.577 1.946-1.086 2.602-1.526 1.437-1.103 2.495-2.287 3.185-3.555s1.030-2.673 1.030-4.215c0-3.36-1.222-6.171-3.677-8.428-2.45-2.26-5.465-3.388-9.046-3.388-2.812 0-5.29 0.771-7.44 2.312-2.144 1.542-3.689 3.638-4.628 6.28l6.778 3.14c0.441-1.432 1.171-2.533 2.189-3.304 1.018-0.772 2.189-1.159 3.513-1.159 1.211 0 2.172 0.333 2.891 0.992 0.718 0.662 1.103 1.57 1.16 2.728 0 0.882-0.277 1.653-0.826 2.313-0.554 0.662-1.516 1.349-2.897 2.065-4.792 2.315-7.134 3.431-7.021 3.348 0.107-0.083 0.136-0.068 0.079 0.041-1.488 0.882-2.546 1.942-3.179 3.183-0.634 1.24-0.95 2.713-0.95 4.421-0.057 3.195 0.962 5.716 3.055 7.559 2.093 1.847 4.713 2.796 7.853 2.852 2.15 0 4.090-0.592 5.827-1.776 1.731-1.184 3.1-2.879 4.090-5.084z" />
<glyph unicode="&#xe93c;" glyph-name="languages-icon1" horiz-adv-x="1638" d="M51.2 857.6l768-768 768 768h-1536z" />
<glyph unicode="&#xe93d;" glyph-name="pdf-icon" d="M298.163 435.413c0 27.574-19.147 44.031-52.936 44.031-13.784 0-23.122-1.329-28.018-2.662v-88.544c5.789-1.314 12.906-1.764 22.666-1.764 36.050 0 58.288 18.236 58.288 48.939zM507.308 478.445c-15.142 0-24.907-1.333-30.71-2.668v-196.179c5.793-1.354 15.136-1.354 23.592-1.354 61.383-0.432 101.422 33.36 101.422 104.988 0.449 62.306-36.039 95.213-94.304 95.213zM908.038 593.72h-24.587v118.641c0 0.74-0.119 1.485-0.216 2.235-0.040 4.711-1.536 9.338-4.762 13.004l-197.433 225.533c-0.063 0.058-0.119 0.078-0.159 0.141-1.178 1.314-2.549 2.408-3.999 3.354-0.427 0.288-0.865 0.53-1.314 0.779-1.257 0.686-2.588 1.255-3.959 1.666-0.37 0.104-0.705 0.257-1.081 0.353-1.49 0.353-3.038 0.574-4.608 0.574h-485.213c-22.157 0-40.157-18.020-40.157-40.159v-326.112h-24.583c-31.696 0-57.396-25.689-57.396-57.396v-298.469c0-31.687 25.7-57.395 57.396-57.395h24.585v-204.311c0-22.135 18-40.158 40.157-40.158h662.585c22.141 0 40.158 18.022 40.158 40.158v204.311h24.587c31.687 0 57.395 25.708 57.395 57.395v298.46c0 31.705-25.708 57.396-57.395 57.396zM180.706 919.834h465.137v-205.456c0-11.093 9-20.078 20.076-20.078h177.374v-100.593h-662.587v326.127zM673.667 385.49c0-57.401-20.901-96.978-49.863-121.458-31.551-26.249-79.607-38.696-138.31-38.696-35.137 0-60.044 2.224-76.969 4.437v294.515c24.91 3.995 57.405 6.22 91.662 6.22 56.911 0 93.842-10.24 122.775-32.025 31.124-23.137 50.705-60.053 50.705-112.994zM150.030 228.443v295.847c20.898 3.54 50.274 6.22 91.647 6.22 41.813 0 71.626-8.009 91.637-24.034 19.134-15.117 32.005-40.034 32.005-69.397 0-29.372-9.76-54.285-27.568-71.175-23.131-21.806-57.382-31.596-97.431-31.596-8.883 0-16.918 0.449-23.118 1.343v-107.218l-67.172 0.011zM843.292-12.971h-662.587v193.439h662.587v-193.439zM901.478 472.677h-115.246v-68.51h107.668v-55.165h-107.668v-120.565h-68.028v299.848h183.273v-55.608z" />
<glyph unicode="&#xe93e;" glyph-name="project-minus" d="M0 521.143h1024v-146.286h-1024v146.286z" />
<glyph unicode="&#xe93f;" glyph-name="project-next" d="M774.113 468.413l-483.058 483.056c-11.374 11.374-29.614 11.374-40.988 0s-11.374-29.614 0-40.988l462.457-462.455-462.457-462.455c-11.374-11.372-11.374-29.614 0-40.986 5.579-5.581 13.090-8.586 20.386-8.586s14.808 2.79 20.387 8.586l483.057 483.052c11.372 11.162 11.372 29.617 0.215 40.776z" />
<glyph unicode="&#xe940;" glyph-name="project-plus" d="M1024 374.857h-438.857v-438.857h-146.286v438.857h-438.857v146.286h438.857v438.857h146.286v-438.857h438.857v-146.286z" />
<glyph unicode="&#xe941;" glyph-name="search-icon" d="M711.111 334.222h-44.942l-15.929 15.36c55.751 64.853 89.316 149.049 89.316 240.64 0 204.231-165.547 369.778-369.778 369.778s-369.778-165.547-369.778-369.778c0-204.231 165.547-369.778 369.778-369.778 91.591 0 175.787 33.564 240.64 89.316l15.36-15.929v-44.942l284.444-283.876 84.764 84.764-283.876 284.444zM369.778 334.222c-141.653 0-256 114.347-256 256s114.347 256 256 256c141.653 0 256-114.347 256-256s-114.347-256-256-256z" />
<glyph unicode="&#xe942;" glyph-name="slider-arrow-next" d="M643.057 458.207l-241.528 241.528c-5.688 5.687-14.807 5.687-20.495 0-5.686-5.686-5.686-14.807 0-20.495l231.229-231.227-231.229-231.227c-5.686-5.686-5.686-14.807 0-20.493 2.79-2.79 6.546-4.293 10.194-4.293s7.404 1.395 10.194 4.293l241.528 241.526c5.686 5.581 5.686 14.81 0.108 20.388z" />
<glyph unicode="&#xe943;" glyph-name="slider-arrow-preview" d="M380.943 437.793l241.528-241.528c5.688-5.686 14.807-5.686 20.495 0 5.686 5.686 5.686 14.807 0 20.495l-231.229 231.227 231.229 231.227c5.686 5.686 5.686 14.807 0 20.493-2.79 2.79-6.546 4.293-10.194 4.293s-7.404-1.395-10.194-4.293l-241.528-241.526c-5.686-5.581-5.686-14.81-0.108-20.388z" />
<glyph unicode="&#xe944;" glyph-name="slider-arrow" horiz-adv-x="597" d="M36.555 427.588l483.057-483.059c11.371-11.371 29.615-11.371 40.986 0 11.375 11.375 11.375 29.615 0 40.99l-462.454 462.455 462.454 462.454c11.375 11.374 11.375 29.614 0 40.988-5.577 5.579-13.090 8.584-20.386 8.584s-14.805-2.79-20.386-8.584l-483.056-483.056c-11.374-11.162-11.374-29.615-0.214-40.772z" />
<glyph unicode="&#xe945;" glyph-name="slider-dot-active" d="M0 960h1024v-1024h-1024v1024z" />
<glyph unicode="&#xe947;" glyph-name="stop-watch" d="M539.895 311.65c17.766 1.382 33.963 10.445 44.476 24.9l159.795 220.91c4.898 6.775 4.164 16.128-1.775 22.067-5.939 5.922-15.292 6.656-22.067 1.775l-220.945-159.846c-14.404-10.479-23.467-26.675-24.849-44.442s5.052-35.157 17.63-47.735c11.452-11.469 26.897-17.818 42.957-17.818 1.587 0 3.174 0.068 4.779 0.188zM508.561 374.353c0.597 7.799 4.591 14.916 10.871 19.49l134.775 97.502-97.468-134.741c-4.608-6.332-11.725-10.308-19.524-10.923-7.765-0.512-15.394 2.185-20.941 7.731-5.495 5.513-8.329 13.158-7.714 20.941zM922.189 626.108c-0.171 0.358-0.171 0.734-0.358 1.092-0.205 0.341-0.529 0.529-0.751 0.853-17.254 29.594-37.666 57.122-60.843 82.074l36.659 36.642 24.132-24.132 72.397 72.414-72.397 72.397-72.414-72.397 24.149-24.149-36.659-36.642c-24.951 23.177-52.463 43.605-82.074 60.86-0.324 0.222-0.512 0.546-0.853 0.751-0.358 0.205-0.734 0.188-1.092 0.375-52.787 30.413-112.094 50.671-175.326 58.095v20.326h25.6c23.535 0 42.667 19.132 42.667 42.667s-19.149 42.667-42.684 42.667h-153.6c-23.537 0-42.668-19.132-42.668-42.667s19.132-42.667 42.668-42.667h25.6v-19.729c-18.432-1.963-36.83-4.966-55.025-9.131-9.182-2.099-14.933-11.264-12.817-20.446 2.099-9.182 11.264-14.95 20.448-12.817 15.701 3.601 31.556 6.315 47.445 8.141l18.313 1.417c5.598 0.427 10.752 0.734 15.77 0.973v-33.741c0-9.438 7.629-17.067 17.067-17.067s17.067 7.629 17.067 17.067v33.621c64.188-2.953 124.672-20.19 178.449-48.555l-16.828-29.133c-4.71-8.175-1.911-18.603 6.246-23.313 2.679-1.553 5.615-2.287 8.516-2.287 5.905 0 11.639 3.055 14.797 8.533l16.777 29.065c53.402-33.877 98.765-79.241 132.642-132.642l-29.065-16.777c-8.141-4.71-10.94-15.138-6.212-23.313 3.174-5.478 8.892-8.533 14.797-8.533 2.901 0 5.837 0.734 8.516 2.287l29.133 16.828c28.757-54.545 46.046-116.019 48.623-181.231h-33.707c-9.438 0-17.067-7.629-17.067-17.067s7.629-17.067 17.067-17.067h33.707c-2.577-65.212-19.866-126.686-48.623-181.231l-29.133 16.828c-8.158 4.71-18.603 1.946-23.313-6.246-4.71-8.175-1.911-18.603 6.246-23.313l29.065-16.777c-33.877-53.402-79.241-98.765-132.642-132.642l-16.777 29.065c-4.727 8.192-15.189 10.974-23.313 6.246-8.175-4.71-10.974-15.155-6.246-23.313l16.828-29.133c-53.777-28.365-114.261-45.602-178.449-48.555v33.587c0 9.438-7.629 17.067-17.067 17.067s-17.067-7.629-17.067-17.067v-33.724c-27.255 0.939-54.596 4.352-81.51 10.53-9.184 2.202-18.348-3.635-20.448-12.817-2.116-9.182 3.635-18.347 12.817-20.446 34.067-7.851 68.866-11.81 103.392-11.81 0.836 0 1.638 0.051 2.475 0.068 0.119 0 0.205-0.068 0.307-0.068 0.137 0 0.256 0.085 0.393 0.085 82.039 0.563 159.010 22.716 225.604 60.979 0.529 0.239 1.092 0.358 1.604 0.666 0.341 0.205 0.529 0.529 0.853 0.751 68.932 40.175 126.532 97.707 166.793 166.588 0.324 0.461 0.734 0.819 1.024 1.331 0.205 0.358 0.188 0.734 0.358 1.092 38.98 67.584 61.389 145.852 61.389 229.308s-22.409 161.724-61.372 229.308zM921.011 819.183l24.132-24.132-24.132-24.149-24.149 24.149 24.149 24.132zM508.476 857.242v51.558h-59.733c-4.693 0-8.533 3.84-8.533 8.533s3.84 8.533 8.533 8.533h153.6c4.693 0 8.533-3.84 8.533-8.533s-3.84-8.533-8.533-8.533h-59.733v-51.558c-5.939 0.239-11.605 0.358-17.067 0.358-0.478 0-1.024-0.034-1.502-0.034-0.427 0-0.853 0.034-1.28 0.034-2.799 0-5.598-0.188-8.397-0.239-1.98-0.051-3.84-0.034-5.888-0.119zM371.942 721.062h-85.333c-9.438 0-17.067-7.629-17.067-17.067s7.629-17.067 17.067-17.067h85.333c9.438 0 17.067 7.629 17.067 17.067s-7.629 17.067-17.067 17.067zM371.942 601.604h-170.667c-9.438 0-17.067-7.629-17.067-17.067s7.629-17.067 17.067-17.067h170.667c9.438 0 17.067 7.629 17.067 17.067s-7.629 17.067-17.067 17.067zM371.942 482.125h-256c-9.438 0-17.067-7.629-17.067-17.067s7.629-17.067 17.067-17.067h256c9.438 0 17.067 7.629 17.067 17.067s-7.629 17.067-17.067 17.067zM371.938 362.667h-324.267c-9.438 0-17.067-7.629-17.067-17.067s7.629-17.067 17.067-17.067h324.267c9.438 0 17.067 7.629 17.067 17.067s-7.629 17.067-17.067 17.067zM371.933 243.209h-221.867c-9.438 0-17.067-7.629-17.067-17.067s7.629-17.067 17.067-17.067h221.867c9.438 0 17.067 7.629 17.067 17.067s-7.629 17.067-17.067 17.067zM371.939 123.729h-119.467c-9.438 0-17.067-7.629-17.067-17.067s7.629-17.067 17.067-17.067h119.467c9.438 0 17.067 7.629 17.067 17.067s-7.629 17.067-17.067 17.067z" />
<glyph unicode="&#xe948;" glyph-name="teleg-icon-black" d="M246.391 376.525l127.36-318.374 165.804 165.803 284.284-225.954 200.162 900.001-1024-426.533 246.391-94.942zM731.392 639.781l-313.431-285.882-39.039-147.132-72.117 180.326 424.588 252.688z" />
<glyph unicode="&#xe949;" glyph-name="teleg-icon" d="M246.391 376.525l127.36-318.374 165.804 165.803 284.284-225.954 200.162 900.001-1024-426.533 246.391-94.942zM731.392 639.781l-313.431-285.882-39.039-147.132-72.117 180.326 424.588 252.688z" />
<glyph unicode="&#xe94a;" glyph-name="trash-icon" d="M256 149.333c0-46.933 38.4-85.333 85.333-85.333h341.333c46.933 0 85.333 38.4 85.333 85.333v512h-512v-512zM810.667 789.333h-149.333l-42.667 42.667h-213.333l-42.667-42.667h-149.333v-85.333h597.333v85.333z" />
<glyph unicode="&#xe94b;" glyph-name="user-arrow" d="M903.68 738.979l-391.68-390.827-391.68 390.827-120.32-120.32 512-512 512 512-120.32 120.32z" />
<glyph unicode="&#xe94c;" glyph-name="valuta-icon" d="M31.996 703.984l480-480 480 480h-960z" />
<glyph unicode="&#xe94d;" glyph-name="yt-icon-black" d="M874.001 838h-724.001c-82.703 0-150-67.297-150-150v-480c0-82.705 67.297-149.999 150-149.999h724.001c82.701 0 149.999 67.294 149.999 149.999v480c0 82.703-67.298 150-149.999 150zM362 241.165v407.812l360.991-200.539-360.991-207.273z" />
<glyph unicode="&#xe94e;" glyph-name="yt-icon" d="M874.001 838h-724.001c-82.703 0-150-67.297-150-150v-480c0-82.705 67.297-149.999 150-149.999h724.001c82.701 0 149.999 67.294 149.999 149.999v480c0 82.703-67.298 150-149.999 150zM362 241.165v407.812l360.991-200.539-360.991-207.273z" />
<glyph unicode="&#xe94f;" glyph-name="arrow-sidebar" horiz-adv-x="1434" d="M1183.713 468.413l-483.057 483.056c-11.377 11.374-29.614 11.374-40.991 0-11.372-11.374-11.372-29.614 0-40.988l462.459-462.455-462.459-462.455c-11.372-11.372-11.372-29.614 0-40.986 5.581-5.581 13.092-8.586 20.388-8.586s14.807 2.79 20.388 8.586l483.057 483.052c11.372 11.162 11.372 29.617 0.215 40.776zM774.113 468.413l-483.058 483.056c-11.374 11.374-29.614 11.374-40.988 0s-11.374-29.614 0-40.988l462.457-462.455-462.457-462.455c-11.374-11.372-11.374-29.614 0-40.986 5.579-5.581 13.090-8.586 20.386-8.586s14.808 2.79 20.387 8.586l483.057 483.052c11.372 11.162 11.372 29.617 0.215 40.776z" />
<glyph unicode="&#xe950;" glyph-name="list-style-features" d="M0 960h1024v-1024h-1024v1024z" />
<glyph unicode="&#xe951;" glyph-name="menu-button" d="M0 106.667h1024v113.778h-1024v-113.778zM0 391.111h1024v113.778h-1024v-113.778zM0 789.333v-113.778h1024v113.778h-1024z" />
<glyph unicode="&#xe952;" glyph-name="configuration-menu-left" d="M469.333 234.667h426.667v85.333h-426.667v-85.333zM128 448l170.667-170.667v341.333l-170.667-170.667zM128 64h768v85.333h-768v-85.333zM128 832v-85.333h768v85.333h-768zM469.333 576h426.667v85.333h-426.667v-85.333zM469.333 405.333h426.667v85.333h-426.667v-85.333z" />
</font>
</defs>
</svg>
