<svg width="46" height="10" viewBox="0 0 46 10" fill="none" xmlns="http://www.w3.org/2000/svg">
<g clip-path="url(#clip0)">
<path d="M10.0689 9.01477C10.0691 9.20966 10.0119 9.40022 9.90478 9.56234C9.79762 9.72446 9.64525 9.85086 9.46693 9.92557C9.2886 10.0003 9.09234 10.0199 8.90295 9.98203C8.71357 9.94414 8.53957 9.85041 8.40295 9.71269C8.26634 9.57497 8.17325 9.39945 8.13545 9.20833C8.09766 9.01721 8.11686 8.81906 8.19062 8.63896C8.26439 8.45885 8.3894 8.30486 8.54986 8.19648C8.71032 8.08809 8.89902 8.03017 9.09209 8.03004C9.22028 8.02995 9.34724 8.05535 9.46571 8.10479C9.58418 8.15423 9.69184 8.22674 9.78255 8.31818C9.87325 8.40962 9.94523 8.5182 9.99437 8.63772C10.0435 8.75724 10.0688 8.88536 10.0689 9.01477ZM1.50654 9.94816L1.50654 4.68115C1.50654 4.25912 1.49663 3.83642 1.52305 3.4144C1.58514 2.481 2.16371 1.73428 2.9761 1.50627C3.87434 1.25158 4.87034 1.5576 5.36107 2.29232C5.87822 3.06771 5.90266 3.90643 5.50637 4.73448C5.13585 5.50453 4.45226 5.79522 3.63261 5.80722C3.13065 5.81455 2.62803 5.80722 2.10889 5.80722L2.10889 7.22132C2.82089 7.22132 3.50183 7.24332 4.1808 7.21198C4.52038 7.2024 4.85567 7.13291 5.17151 7.00663C6.49246 6.4386 7.09481 5.35252 7.2421 3.96243C7.31578 3.26263 7.18239 2.55648 6.85877 1.93315C6.53515 1.30982 6.03581 0.797259 5.42381 0.460198C4.16099 -0.239849 2.51839 -0.132508 1.43785 0.734216C0.412796 1.55494 0 2.66368 0 3.95243L0 9.94616L1.50654 9.94816ZM5.75735 9.94816H7.26059L7.26059 5.81455C7.1569 6.18525 6.69193 6.9373 5.75339 7.37266C5.75801 7.86803 5.75801 9.11077 5.75735 9.94616V9.94816Z" fill="url(#paint0_linear)"/>
<path d="M14.3673 2.36279C13.0285 2.36279 11.9434 3.47553 11.9434 4.84829L11.9434 9.89329H12.9341L12.9341 6.85509C12.9341 6.85509 12.9268 5.38033 12.9341 4.83896C12.9446 3.97223 13.5807 3.38819 14.3541 3.38819C14.5385 3.38881 14.721 3.42608 14.8911 3.49787C15.0612 3.56967 15.2157 3.67459 15.3456 3.80665C15.4756 3.9387 15.5785 4.0953 15.6485 4.26751C15.7185 4.43971 15.7542 4.62415 15.7536 4.81029C15.7536 4.81962 15.7536 4.82962 15.7536 4.83896C15.7332 5.57234 15.3395 6.24705 14.3548 6.24705C13.8964 6.24705 13.4796 6.23638 13.2319 6.22838V7.13378C13.6593 7.14244 13.9446 7.12778 14.3548 7.15178C15.7332 7.23378 16.7893 6.33706 16.7893 4.84629C16.7919 3.47553 15.7067 2.36279 14.3673 2.36279Z" fill="white"/>
<path d="M18.593 4.89693C18.404 5.01438 18.2397 5.1682 18.1095 5.34963V4.83426H17.202V9.89327H18.1095V7.3291C18.1095 7.25709 18.1227 6.3477 18.6861 5.897C19.093 5.57765 19.6768 5.58565 19.6768 5.58565V4.66692C19.6768 4.66692 18.982 4.64625 18.593 4.89693Z" fill="white"/>
<path d="M33.1373 4.89693C32.9483 5.01438 32.784 5.1682 32.6538 5.34963V4.83426H31.7463V9.89327H32.6538V7.3291C32.6538 7.25709 32.667 6.3477 33.2304 5.897C33.6373 5.57765 34.2211 5.58565 34.2211 5.58565V4.66692C34.2211 4.66692 33.5263 4.64625 33.1373 4.89693Z" fill="white"/>
<path d="M22.6002 4.6333C21.1735 4.6333 20.0177 5.81871 20.0177 7.28081C20.0177 8.74291 21.1735 9.92832 22.6002 9.92832C24.0268 9.92832 25.182 8.74291 25.182 7.28081C25.182 5.81871 24.0261 4.6333 22.6002 4.6333ZM22.622 9.0336C21.7402 9.0336 21.0249 8.25554 21.0249 7.29615C21.0249 6.33675 21.7402 5.55803 22.622 5.55803C23.5037 5.55803 24.2183 6.33341 24.2183 7.29615C24.2183 8.25888 23.5037 9.03493 22.622 9.03493V9.0336Z" fill="white"/>
<path d="M30.9327 4.91664C30.8832 3.50188 29.8158 2.36914 28.4229 2.36914C26.9963 2.36914 25.9131 3.55389 25.9131 5.01665V9.89964H26.9038V5.03265C26.9038 4.07259 27.5643 3.2952 28.444 3.2952C29.3238 3.2952 29.9083 4.07325 29.9393 5.03265V6.17273H27.2314V7.17279L29.9426 7.17279V9.89898H30.9333V5.01998V4.91664H30.9327Z" fill="white"/>
<path d="M38.7368 7.47627C38.5994 8.439 38.0189 9.06104 37.079 9.05104C36.1966 9.04171 35.482 8.27299 35.482 7.31359C35.482 6.35419 36.1973 5.55481 37.079 5.57614C37.493 5.57895 37.8897 5.74416 38.1853 6.03684L35.688 7.4276L36.1134 8.20632L39.5624 6.30752C38.9019 5.18412 38.1615 4.64941 37.0579 4.64941C35.6319 4.64941 34.4761 5.83483 34.4761 7.29759C34.4761 8.76036 35.6319 9.9451 37.0579 9.9451C38.4369 9.9451 39.4646 9.13905 39.6456 7.52894L38.7368 7.47627Z" fill="white"/>
<path d="M45.5549 7.22292C45.5444 6.53621 45.2665 5.88128 44.7814 5.39972C44.2963 4.91815 43.6429 4.64863 42.9626 4.64942C41.5366 4.64942 40.3801 5.83483 40.3801 7.29759C40.3801 8.76036 41.5366 9.9451 42.9626 9.9451C43.4112 9.94587 43.8521 9.82696 44.2406 9.60041V8.38566C44.0986 8.58909 43.9108 8.75559 43.6926 8.87149C43.4745 8.98739 43.2322 9.04939 42.9857 9.05238C42.104 9.05238 41.3887 8.27432 41.3887 7.31493C41.3887 6.35553 42.104 5.57748 42.9857 5.57748C43.8443 5.57748 44.5332 6.30086 44.5649 7.23092V9.9011H45.5556L45.5549 7.22292Z" fill="white"/>
</g>
<defs>
<linearGradient id="paint0_linear" x1="0.456388" y1="10.4069" x2="8.03856" y2="2.89562" gradientUnits="userSpaceOnUse">
<stop offset="0.01" stop-color="#6A00FC"/>
<stop offset="0.06" stop-color="#7001F4"/>
<stop offset="0.14" stop-color="#7F02DE"/>
<stop offset="0.24" stop-color="#9904BA"/>
<stop offset="0.36" stop-color="#BD0788"/>
<stop offset="0.49" stop-color="#EA0B49"/>
<stop offset="0.54" stop-color="#FF0D2C"/>
<stop offset="1" stop-color="#FDC70C"/>
</linearGradient>
<clipPath id="clip0">
<rect width="45.5556" height="10" fill="white"/>
</clipPath>
</defs>
</svg>
