<svg width="24" height="22" viewBox="0 0 24 22" xmlns="http://www.w3.org/2000/svg">
    <path d="M23.7888 18.9733L13.2592 1.51099C12.9931 1.06966 12.5153 0.799805 12 0.799805C11.4846 0.799805 11.0068 1.06962 10.7407 1.51099L0.211216 18.9733C-0.0626273 19.4275 -0.0707367 19.9939 0.190076 20.4557C0.450888 20.9175 0.940123 21.2031 1.47047 21.2031H22.5295C23.0598 21.2031 23.5491 20.9175 23.8099 20.4557C24.0707 19.9939 24.0626 19.4275 23.7888 18.9733ZM12.0078 6.84021C12.6126 6.84021 13.1242 7.18137 13.1242 7.78605C13.1242 9.6312 12.9072 12.2827 12.9072 14.1279C12.9072 14.6086 12.38 14.8101 12.0078 14.8101C11.5117 14.8101 11.093 14.6085 11.093 14.1279C11.093 12.2827 10.876 9.6312 10.876 7.78605C10.876 7.18137 11.3721 6.84021 12.0078 6.84021ZM12.0233 18.2679C11.3411 18.2679 10.8294 17.7097 10.8294 17.074C10.8294 16.4228 11.3411 15.8801 12.0233 15.8801C12.6591 15.8801 13.2018 16.4228 13.2018 17.074C13.2018 17.7097 12.6591 18.2679 12.0233 18.2679Z"/>
</svg>
