<svg width="181" height="54" viewBox="0 0 181 54" fill="none" xmlns="http://www.w3.org/2000/svg">
<path fill-rule="evenodd" clip-rule="evenodd" d="M176.16 20.7254C174.906 20.7254 173.856 21.1087 173.008 21.8745C172.161 22.6406 171.737 23.7202 171.737 25.1128C171.737 26.2734 172.08 27.3065 172.765 28.2121C173.45 29.1174 174.5 29.5701 175.916 29.5701C177.587 29.5701 179.282 28.8734 181 27.4809L180.756 35.9424C178.481 36.6386 176.694 36.987 175.394 36.987C173.397 36.987 171.476 36.5456 169.631 35.6635C167.785 34.7813 166.294 33.4583 165.156 31.6939C164.019 29.9296 163.45 27.7709 163.45 25.2173C163.45 23.2209 163.874 21.3176 164.721 19.5068C165.568 17.696 166.886 16.2278 168.673 15.1017C170.461 13.9761 172.689 13.413 175.359 13.413C177.123 13.413 178.957 13.7729 180.861 14.4926V22.8846C179.468 21.4452 177.901 20.7254 176.16 20.7254Z" fill="white"/>
<path fill-rule="evenodd" clip-rule="evenodd" d="M146.632 36.4313V13.8675H161.744V20.0308H154.606V22.1896H161.048V27.9699H154.606V30.3376H161.884V36.4313H146.632Z" fill="white"/>
<path fill-rule="evenodd" clip-rule="evenodd" d="M132.181 36.4313V21.2843H127.655V13.8675H144.787V21.2843H140.26V36.4313H132.181Z" fill="white"/>
<path fill-rule="evenodd" clip-rule="evenodd" d="M95.8282 20.7273C94.5747 20.7273 93.5243 21.1106 92.6767 21.8764C91.8295 22.6425 91.4059 23.7221 91.4059 25.1147C91.4059 26.2753 91.7485 27.3084 92.4332 28.214C93.118 29.1193 94.1683 29.572 95.5844 29.572C97.2558 29.572 98.9505 28.8753 100.668 27.4828L100.425 35.9443C98.1495 36.6405 96.3621 36.9889 95.062 36.9889C93.0658 36.9889 91.1447 36.5475 89.2993 35.6654C87.4536 34.7832 85.9623 33.4602 84.8248 31.6958C83.6872 29.9315 83.1184 27.7728 83.1184 25.2192C83.1184 23.2228 83.542 21.3195 84.3897 19.5087C85.2368 17.6979 86.5542 16.2297 88.3415 15.1036C90.1293 13.978 92.3575 13.4149 95.0271 13.4149C96.7915 13.4149 98.6253 13.7747 100.529 14.4945V22.8865C99.136 21.4471 97.5692 20.7273 95.8282 20.7273Z" fill="#DCC488"/>
<path fill-rule="evenodd" clip-rule="evenodd" d="M65.6384 36.4283V13.8645H73.7519V29.1508H81.6561V36.4283H65.6384Z" fill="#DCC488"/>
<path fill-rule="evenodd" clip-rule="evenodd" d="M39.4187 36.4283L47.3924 13.8645H56.4111L64.3157 36.4283H55.5754L54.8791 33.5729H48.7854L48.0541 36.4283H39.4187ZM53.4861 28.2107L51.8843 20.724H51.7102L50.1084 28.2107H53.4861Z" fill="#DCC488"/>
<path fill-rule="evenodd" clip-rule="evenodd" d="M114.318 13.3771C116.036 13.3771 117.62 13.6847 119.072 14.3C120.522 14.9153 121.793 15.7567 122.884 16.8243C123.975 17.8924 124.834 19.1574 125.461 20.6199C126.088 22.0824 126.401 23.6029 126.401 25.1818C126.401 27.317 125.862 29.2903 124.782 31.1012C123.703 32.9119 122.228 34.3452 120.36 35.4014C118.491 36.4579 116.477 36.986 114.318 36.986C112.159 36.986 110.146 36.4579 108.277 35.4014C106.408 34.3452 104.934 32.9119 103.855 31.1012C102.775 29.2903 102.235 27.317 102.235 25.1818C102.235 23.6029 102.549 22.0882 103.176 20.6377C103.802 19.1867 104.667 17.9154 105.77 16.8243C106.872 15.7337 108.149 14.886 109.6 14.2828C111.051 13.679 112.624 13.3771 114.318 13.3771ZM114.318 20.9683C113.274 20.9683 112.368 21.3862 111.602 22.2219C110.836 23.0575 110.453 24.0672 110.453 25.2513C110.453 26.4353 110.836 27.4449 111.602 28.2807C112.368 29.1164 113.274 29.5342 114.318 29.5342C115.363 29.5342 116.268 29.1221 117.034 28.2979C117.8 27.4737 118.184 26.4583 118.184 25.2513C118.184 24.0442 117.8 23.0283 117.034 22.2046C116.268 21.3804 115.363 20.9683 114.318 20.9683Z" fill="#DCC488"/>
<path fill-rule="evenodd" clip-rule="evenodd" d="M0 50.3365V27.8698H21.8219V50.3365H0ZM5.21885 44.9613V33.2449H16.603V44.9613H5.21885Z" fill="white"/>
<path fill-rule="evenodd" clip-rule="evenodd" d="M13.4265 36.353V13.8881H35.2524V36.353H13.4265ZM18.6473 30.9787V19.2624H30.0315V30.9787H18.6473Z" fill="white"/>
<path fill-rule="evenodd" clip-rule="evenodd" d="M0.00268555 22.4661V0H21.8246V22.4661H0.00268555ZM5.22153 17.0912V5.37481H16.6057V17.0912H5.22153Z" fill="white"/>
<path fill-rule="evenodd" clip-rule="evenodd" d="M13.4268 27.8592H21.8446V36.3465H13.4268V27.8592Z" fill="#DCC488"/>
<path fill-rule="evenodd" clip-rule="evenodd" d="M13.4272 22.4721V13.8881H21.8218V22.4721H13.4272Z" fill="#DCC488"/>
<path fill-rule="evenodd" clip-rule="evenodd" d="M39.252 39.6494H40.6834V46.2079L42.6845 44.1485H44.5834L41.9396 46.7047L44.7735 50.2979H42.9622L40.9462 47.6687L40.6834 47.9314V50.2979H39.252V39.6494ZM45.7081 44.1485H47.1396V50.2979H45.7081V44.1485ZM45.5037 41.6067C45.5037 41.3439 45.5888 41.1249 45.7593 40.9494C45.9297 40.774 46.1512 40.6868 46.4237 40.6868C46.6868 40.6965 46.9059 40.7865 47.0813 40.957C47.2562 41.1271 47.344 41.3439 47.344 41.6067C47.344 41.8795 47.2562 42.1008 47.0813 42.2714C46.9059 42.442 46.6868 42.527 46.4237 42.527C46.1512 42.527 45.9297 42.442 45.7593 42.2714C45.5888 42.1008 45.5037 41.8795 45.5037 41.6067ZM51.5218 45.4629H50.426V50.2979H48.9945V45.4629H48.3956V44.1485H48.9945V41.8992H50.426V44.1485H51.5218V45.4629ZM57.2477 44.426V46.3102C57.0527 45.9888 56.7971 45.7358 56.4805 45.5507C56.1643 45.3658 55.826 45.2732 55.4653 45.2732C54.9688 45.2732 54.5379 45.4483 54.1728 45.799C53.8076 46.1495 53.6251 46.6267 53.6251 47.2305C53.6251 47.7952 53.793 48.2649 54.1291 48.6402C54.4648 49.0151 54.9056 49.2026 55.451 49.2026C55.8014 49.2026 56.1399 49.1123 56.4662 48.9323C56.7922 48.752 57.0527 48.4916 57.2477 48.1508V50.0348C56.965 50.2004 56.6875 50.3174 56.415 50.3856C56.1422 50.4538 55.855 50.4876 55.553 50.4876C55.0077 50.4782 54.5307 50.4025 54.1216 50.2614C53.7128 50.1202 53.3523 49.8839 53.0409 49.553C52.7583 49.2706 52.5418 48.9372 52.3908 48.5525C52.2399 48.1678 52.1643 47.7319 52.1643 47.2452C52.1643 46.7484 52.2497 46.2982 52.4199 45.8939C52.5903 45.4896 52.8362 45.1321 53.1576 44.8204C53.4693 44.5283 53.805 44.3164 54.1657 44.1851C54.5258 44.0533 54.9737 43.9878 55.5094 43.9878C55.85 43.9878 56.1594 44.0243 56.4369 44.0973C56.7142 44.1704 56.9845 44.2799 57.2477 44.426ZM58.6208 50.2979V39.6494H60.0523V44.6745C60.2664 44.4504 60.5099 44.2799 60.7825 44.1628C61.0554 44.0461 61.3622 43.9878 61.7028 43.9878C62.1022 43.9878 62.4575 44.0631 62.7691 44.214C63.0808 44.3649 63.3289 44.5671 63.5141 44.8204C63.6504 45.0248 63.7501 45.2585 63.8137 45.5213C63.8769 45.7844 63.9085 46.1201 63.9085 46.5293V50.2979H62.477V46.6607C62.477 46.3686 62.4552 46.1473 62.4112 45.9963C62.3675 45.8454 62.2968 45.7113 62.1993 45.5943C62.1022 45.4972 61.9803 45.4193 61.8341 45.3609C61.6882 45.3022 61.542 45.2732 61.396 45.2732C61.1916 45.283 60.9918 45.3316 60.7972 45.4193C60.6025 45.507 60.4517 45.6286 60.3444 45.7844C60.2374 45.9403 60.1618 46.1398 60.1182 46.3832C60.0741 46.6267 60.0523 46.9434 60.0523 47.3325V50.2979H58.6208ZM70.1309 48.0191L71.3287 48.691C71.2218 48.8859 71.0975 49.0783 70.9564 49.268C70.8153 49.4582 70.6714 49.6162 70.5255 49.7428C70.2431 49.996 69.9168 50.1835 69.5467 50.305C69.1768 50.4271 68.8165 50.4876 68.4657 50.4876C67.5214 50.4782 66.7737 50.1737 66.2238 49.5748C65.6736 48.9759 65.3984 48.2043 65.3984 47.2596C65.3984 46.2956 65.6713 45.5093 66.2164 44.9006C66.7617 44.292 67.487 43.9878 68.3927 43.9878C68.8603 43.9878 69.2961 44.0827 69.7004 44.2728C70.1042 44.4624 70.4377 44.7425 70.7008 45.1126C70.8856 45.385 71.0246 45.7137 71.1172 46.0983C71.2098 46.483 71.2606 46.8993 71.2703 47.3472V47.5662H66.8592C66.8689 48.0436 67.0298 48.4354 67.341 48.7422C67.6527 49.049 68.0472 49.2026 68.5244 49.2026C68.69 49.2026 68.858 49.1755 69.0284 49.1221C69.1986 49.0685 69.357 48.9831 69.5031 48.8664C69.6198 48.7787 69.7342 48.6594 69.8463 48.5085C69.9582 48.3575 70.053 48.1946 70.1309 48.0191ZM66.9612 46.3979H69.8099C69.7222 46.0569 69.5516 45.7866 69.2984 45.5871C69.0453 45.3876 68.7436 45.283 68.3927 45.2732C68.0423 45.2732 67.7382 45.3778 67.4799 45.5871C67.2221 45.7964 67.0489 46.0667 66.9612 46.3979ZM72.8042 50.2979V44.1485H74.2357V44.718C74.4498 44.4745 74.6934 44.292 74.9659 44.1704C75.2388 44.0484 75.5505 43.9878 75.9009 43.9878C76.3002 43.9976 76.6534 44.0729 76.9597 44.214C77.2665 44.3551 77.5176 44.5573 77.7122 44.8204C77.8484 45.0346 77.9433 45.2732 77.9972 45.536C78.0505 45.799 78.0821 46.13 78.0919 46.5293V50.2979H76.6604V46.8798C76.6507 46.3151 76.5679 45.9059 76.412 45.6531C76.2563 45.3996 75.9641 45.2732 75.5358 45.2732C75.0296 45.2732 74.6835 45.4388 74.4988 45.7697C74.3136 46.1009 74.2259 46.6267 74.2357 47.3472V50.2979H72.8042ZM83.3067 50.2979V39.6494H84.7382V44.6745C84.9523 44.4504 85.1959 44.2799 85.4684 44.1628C85.7413 44.0461 86.0481 43.9878 86.3887 43.9878C86.7881 43.9878 87.1435 44.0631 87.4551 44.214C87.7668 44.3649 88.0148 44.5671 88.2001 44.8204C88.3363 45.0248 88.436 45.2585 88.4996 45.5213C88.5628 45.7844 88.5945 46.1201 88.5945 46.5293V50.2979H87.163V46.6607C87.163 46.3686 87.1412 46.1473 87.0971 45.9963C87.0535 45.8454 86.9827 45.7113 86.8852 45.5943C86.7881 45.4972 86.6662 45.4193 86.5201 45.3609C86.374 45.3022 86.228 45.2732 86.082 45.2732C85.8776 45.283 85.6777 45.3316 85.483 45.4193C85.2885 45.507 85.1375 45.6286 85.0303 45.7844C84.9234 45.9403 84.8477 46.1398 84.8041 46.3832C84.76 46.6267 84.7382 46.9434 84.7382 47.3325V50.2979H83.3067ZM93.3711 43.9878C94.3057 43.9878 95.0872 44.2946 95.7154 44.9082C96.3436 45.5213 96.6575 46.2956 96.6575 47.2305C96.6575 48.1749 96.3436 48.9541 95.7154 49.5676C95.0872 50.1812 94.3057 50.4876 93.3711 50.4876C92.4263 50.4876 91.6426 50.1812 91.0193 49.5676C90.3959 48.9541 90.0843 48.1749 90.0843 47.2305C90.0843 46.2956 90.3959 45.5213 91.0193 44.9082C91.6426 44.2946 92.4263 43.9878 93.3711 43.9878ZM93.3711 49.2026C93.9259 49.2026 94.369 49.0272 94.7002 48.6768C95.0314 48.3259 95.1967 47.849 95.1967 47.2452C95.1967 46.6607 95.0314 46.186 94.7002 45.821C94.369 45.4558 93.9259 45.2732 93.3711 45.2732C92.8062 45.2732 92.3608 45.4558 92.0344 45.821C91.7082 46.186 91.5451 46.6607 91.5451 47.2452C91.5451 47.849 91.7082 48.3259 92.0344 48.6768C92.3608 49.0272 92.8062 49.2026 93.3711 49.2026ZM98.1474 50.2979V44.1485H99.5788V44.718C99.7734 44.4843 100 44.3066 100.258 44.1851C100.516 44.063 100.796 43.9976 101.098 43.9878C101.419 43.9878 101.721 44.0657 102.004 44.2216C102.286 44.3775 102.515 44.6013 102.69 44.8935C102.895 44.6013 103.157 44.3775 103.479 44.2216C103.8 44.0657 104.146 43.9878 104.516 43.9878C104.886 43.9878 105.227 44.0729 105.538 44.2434C105.85 44.4139 106.093 44.6499 106.269 44.9518C106.376 45.1464 106.456 45.373 106.51 45.6308C106.563 45.889 106.59 46.1789 106.59 46.4999V50.2979H105.159V46.9091C105.149 46.6656 105.134 46.4514 105.115 46.2666C105.095 46.0814 105.066 45.9305 105.027 45.8138C104.949 45.6384 104.84 45.5044 104.698 45.4118C104.557 45.3196 104.394 45.2732 104.209 45.2732C104.034 45.283 103.871 45.3267 103.72 45.4045C103.569 45.4825 103.45 45.5898 103.362 45.7261C103.265 45.8623 103.194 46.0351 103.15 46.2444C103.106 46.4541 103.084 46.7484 103.084 47.1281V50.2979H101.653V46.9091C101.653 46.6656 101.641 46.4514 101.616 46.2666C101.592 46.0814 101.561 45.9305 101.521 45.8138C101.444 45.6384 101.334 45.5044 101.193 45.4118C101.052 45.3196 100.889 45.2732 100.703 45.2732C100.528 45.2732 100.365 45.3147 100.214 45.3975C100.063 45.4799 99.9439 45.5898 99.8562 45.7261C99.7591 45.8623 99.6861 46.0351 99.6371 46.2444C99.5886 46.4541 99.569 46.7484 99.5788 47.1281V50.2979H98.1474ZM112.813 48.0191L114.01 48.691C113.903 48.8859 113.779 49.0783 113.638 49.268C113.497 49.4582 113.353 49.6162 113.207 49.7428C112.925 49.996 112.598 50.1835 112.228 50.305C111.858 50.4271 111.498 50.4876 111.147 50.4876C110.203 50.4782 109.455 50.1737 108.905 49.5748C108.355 48.9759 108.08 48.2043 108.08 47.2596C108.08 46.2956 108.353 45.5093 108.898 44.9006C109.443 44.292 110.169 43.9878 111.074 43.9878C111.542 43.9878 111.978 44.0827 112.382 44.2728C112.786 44.4624 113.119 44.7425 113.382 45.1126C113.567 45.385 113.706 45.7137 113.799 46.0983C113.891 46.483 113.942 46.8993 113.952 47.3472V47.5662H109.541C109.551 48.0436 109.711 48.4354 110.023 48.7422C110.334 49.049 110.729 49.2026 111.206 49.2026C111.372 49.2026 111.539 49.1755 111.71 49.1221C111.88 49.0685 112.039 48.9831 112.185 48.8664C112.301 48.7787 112.416 48.6594 112.528 48.5085C112.64 48.3575 112.735 48.1946 112.813 48.0191ZM109.643 46.3979H112.492C112.404 46.0569 112.233 45.7866 111.98 45.5871C111.727 45.3876 111.425 45.283 111.074 45.2732C110.724 45.2732 110.42 45.3778 110.161 45.5871C109.904 45.7964 109.731 46.0667 109.643 46.3979ZM123.403 44.8641V44.1485H124.834V50.2979H123.403V49.6554C123.169 49.9279 122.897 50.1349 122.585 50.2761C122.273 50.4172 121.933 50.4876 121.563 50.4876C120.647 50.4876 119.921 50.1688 119.386 49.5312C118.851 48.8931 118.583 48.1215 118.583 47.2159C118.583 46.2519 118.87 45.4727 119.444 44.8787C120.019 44.2848 120.73 43.9878 121.577 43.9878C121.957 43.9878 122.303 44.0657 122.614 44.2216C122.926 44.3775 123.189 44.5916 123.403 44.8641ZM121.752 45.2732C121.236 45.2732 120.822 45.4629 120.511 45.8428C120.199 46.2225 120.043 46.69 120.043 47.2452C120.034 47.8001 120.187 48.2649 120.503 48.6402C120.82 49.0151 121.236 49.2026 121.752 49.2026C122.229 49.2026 122.638 49.0321 122.979 48.691C123.32 48.3504 123.491 47.8732 123.491 47.2596C123.491 46.6268 123.32 46.1375 122.979 45.7915C122.638 45.446 122.229 45.2732 121.752 45.2732ZM128.077 49.5823V53.643H126.645V44.1485H128.077V44.8204C128.291 44.5573 128.554 44.3529 128.866 44.2069C129.177 44.0609 129.523 43.9878 129.903 43.9878C130.74 43.9878 131.449 44.2822 132.028 44.8715C132.607 45.4607 132.897 46.2324 132.897 47.1866C132.897 48.1799 132.595 48.9786 131.992 49.5823C131.388 50.1857 130.696 50.4876 129.918 50.4876C129.577 50.4876 129.241 50.41 128.91 50.2542C128.578 50.0984 128.301 49.8744 128.077 49.5823ZM129.728 45.2732C129.241 45.2732 128.829 45.446 128.493 45.7915C128.157 46.1375 127.989 46.6268 127.989 47.2596C127.989 47.8732 128.157 48.3504 128.493 48.691C128.829 49.0321 129.241 49.2026 129.728 49.2026C130.234 49.2026 130.645 49.0151 130.962 48.6402C131.278 48.2649 131.436 47.8001 131.436 47.2452C131.436 46.69 131.278 46.2225 130.962 45.8428C130.645 45.4629 130.234 45.2732 129.728 45.2732ZM135.818 49.5823V53.643H134.387V44.1485H135.818V44.8204C136.033 44.5573 136.296 44.3529 136.607 44.2069C136.919 44.0609 137.265 43.9878 137.645 43.9878C138.482 43.9878 139.19 44.2822 139.77 44.8715C140.349 45.4607 140.639 46.2324 140.639 47.1866C140.639 48.1799 140.337 48.9786 139.733 49.5823C139.13 50.1857 138.438 50.4876 137.659 50.4876C137.318 50.4876 136.982 50.41 136.651 50.2542C136.32 50.0984 136.043 49.8744 135.818 49.5823ZM137.469 45.2732C136.982 45.2732 136.571 45.446 136.235 45.7915C135.899 46.1375 135.731 46.6268 135.731 47.2596C135.731 47.8732 135.899 48.3504 136.235 48.691C136.571 49.0321 136.982 49.2026 137.469 49.2026C137.975 49.2026 138.387 49.0151 138.703 48.6402C139.02 48.2649 139.178 47.8001 139.178 47.2452C139.178 46.69 139.02 46.2225 138.703 45.8428C138.387 45.4629 137.975 45.2732 137.469 45.2732ZM142.129 39.6494H143.56V50.2979H142.129V39.6494ZM145.371 44.1485H146.803V50.2979H145.371V44.1485ZM145.167 41.6067C145.167 41.3439 145.252 41.1249 145.423 40.9494C145.593 40.774 145.814 40.6868 146.087 40.6868C146.35 40.6965 146.569 40.7865 146.745 40.957C146.92 41.1271 147.007 41.3439 147.007 41.6067C147.007 41.8795 146.92 42.1008 146.745 42.2714C146.569 42.442 146.35 42.527 146.087 42.527C145.814 42.527 145.593 42.442 145.423 42.2714C145.252 42.1008 145.167 41.8795 145.167 41.6067ZM153.113 44.8641V44.1485H154.545V50.2979H153.113V49.6554C152.879 49.9279 152.607 50.1349 152.295 50.2761C151.983 50.4172 151.643 50.4876 151.273 50.4876C150.357 50.4876 149.632 50.1688 149.096 49.5312C148.561 48.8931 148.293 48.1215 148.293 47.2159C148.293 46.2519 148.58 45.4727 149.155 44.8787C149.729 44.2848 150.44 43.9878 151.287 43.9878C151.667 43.9878 152.013 44.0657 152.324 44.2216C152.636 44.3775 152.899 44.5916 153.113 44.8641ZM151.463 45.2732C150.946 45.2732 150.532 45.4629 150.221 45.8428C149.909 46.2225 149.754 46.69 149.754 47.2452C149.744 47.8001 149.897 48.2649 150.214 48.6402C150.53 49.0151 150.946 49.2026 151.463 49.2026C151.94 49.2026 152.349 49.0321 152.69 48.691C153.03 48.3504 153.201 47.8732 153.201 47.2596C153.201 46.6268 153.03 46.1375 152.69 45.7915C152.349 45.446 151.94 45.2732 151.463 45.2732ZM156.341 50.2979V44.1485H157.773V44.718C157.987 44.4745 158.23 44.292 158.503 44.1704C158.776 44.0484 159.087 43.9878 159.438 43.9878C159.837 43.9976 160.19 44.0729 160.497 44.214C160.803 44.3551 161.054 44.5573 161.249 44.8204C161.385 45.0346 161.48 45.2732 161.534 45.536C161.587 45.799 161.619 46.13 161.629 46.5293V50.2979H160.197V46.8798C160.188 46.3151 160.105 45.9059 159.949 45.6531C159.793 45.3996 159.501 45.2732 159.073 45.2732C158.566 45.2732 158.22 45.4388 158.036 45.7697C157.85 46.1009 157.763 46.6267 157.773 47.3472V50.2979H156.341ZM168.202 44.426V46.3102C168.007 45.9888 167.751 45.7358 167.435 45.5507C167.119 45.3658 166.78 45.2732 166.42 45.2732C165.923 45.2732 165.492 45.4483 165.127 45.799C164.762 46.1495 164.579 46.6267 164.579 47.2305C164.579 47.7952 164.747 48.2649 165.084 48.6402C165.419 49.0151 165.86 49.2026 166.405 49.2026C166.756 49.2026 167.094 49.1123 167.421 48.9323C167.747 48.752 168.007 48.4916 168.202 48.1508V50.0348C167.919 50.2004 167.642 50.3174 167.369 50.3856C167.097 50.4538 166.809 50.4876 166.507 50.4876C165.962 50.4782 165.485 50.4025 165.076 50.2614C164.667 50.1202 164.307 49.8839 163.995 49.553C163.713 49.2706 163.496 48.9372 163.345 48.5525C163.194 48.1678 163.119 47.7319 163.119 47.2452C163.119 46.7484 163.204 46.2982 163.374 45.8939C163.545 45.4896 163.791 45.1321 164.112 44.8204C164.424 44.5283 164.759 44.3164 165.12 44.1851C165.48 44.0533 165.928 43.9878 166.464 43.9878C166.804 43.9878 167.114 44.0243 167.391 44.0973C167.669 44.1704 167.939 44.2799 168.202 44.426ZM173.986 48.0191L175.184 48.691C175.077 48.8859 174.953 49.0783 174.812 49.268C174.671 49.4582 174.527 49.6162 174.381 49.7428C174.098 49.996 173.772 50.1835 173.402 50.305C173.032 50.4271 172.672 50.4876 172.321 50.4876C171.377 50.4782 170.629 50.1737 170.079 49.5748C169.529 48.9759 169.254 48.2043 169.254 47.2596C169.254 46.2956 169.527 45.5093 170.072 44.9006C170.617 44.292 171.342 43.9878 172.248 43.9878C172.715 43.9878 173.151 44.0827 173.556 44.2728C173.96 44.4624 174.293 44.7425 174.556 45.1126C174.741 45.385 174.88 45.7137 174.972 46.0983C175.065 46.483 175.116 46.8993 175.126 47.3472V47.5662H170.715C170.724 48.0436 170.885 48.4354 171.196 48.7422C171.508 49.049 171.903 49.2026 172.38 49.2026C172.545 49.2026 172.713 49.1755 172.884 49.1221C173.054 49.0685 173.212 48.9831 173.358 48.8664C173.475 48.7787 173.59 48.6594 173.702 48.5085C173.814 48.3575 173.908 48.1946 173.986 48.0191ZM170.817 46.3979H173.665C173.578 46.0569 173.407 45.7866 173.154 45.5871C172.901 45.3876 172.599 45.283 172.248 45.2732C171.898 45.2732 171.594 45.3778 171.335 45.5871C171.077 45.7964 170.904 46.0667 170.817 46.3979ZM180.253 45.2003L179.07 45.8281C179.002 45.6628 178.904 45.5288 178.778 45.4264C178.651 45.3244 178.519 45.2732 178.383 45.2732C178.247 45.283 178.135 45.3218 178.047 45.3899C177.96 45.4581 177.916 45.5507 177.916 45.6673C177.906 45.7942 177.945 45.9059 178.033 46.0034C178.12 46.1009 178.354 46.2324 178.734 46.3979C179.016 46.5341 179.252 46.6535 179.442 46.7559C179.632 46.8579 179.786 46.9478 179.902 47.0257C180.156 47.2207 180.343 47.43 180.465 47.654C180.587 47.878 180.647 48.1264 180.647 48.399C180.647 48.9929 180.431 49.4897 179.997 49.8887C179.564 50.2881 179.031 50.4876 178.398 50.4876C177.901 50.4876 177.463 50.3514 177.083 50.0789C176.704 49.8064 176.431 49.4359 176.265 48.9688L177.463 48.4137C177.541 48.6669 177.67 48.8615 177.85 48.9977C178.03 49.1341 178.237 49.2026 178.471 49.2026C178.685 49.2026 178.855 49.1438 178.982 49.0272C179.109 48.9101 179.177 48.7497 179.187 48.545C179.187 48.3891 179.138 48.2528 179.041 48.1361C178.943 48.0191 178.773 47.8976 178.529 47.7711C177.682 47.3619 177.268 47.1647 177.288 47.1794C177.307 47.194 177.312 47.1914 177.302 47.1722C177.039 47.0163 176.852 46.8289 176.74 46.6095C176.628 46.3904 176.572 46.13 176.572 45.8281C176.562 45.2634 176.742 44.8178 177.112 44.4919C177.482 44.1654 177.945 43.9976 178.5 43.9878C178.88 43.9878 179.223 44.0925 179.53 44.3017C179.836 44.511 180.078 44.8106 180.253 45.2003Z" fill="white"/>
</svg>
